<?xml version="1.0" standalone="no"?>
<!DOCTYPE svg PUBLIC "-//W3C//DTD SVG 1.1//EN" "http://www.w3.org/Graphics/SVG/1.1/DTD/svg11.dtd" >
<svg xmlns="http://www.w3.org/2000/svg">
<metadata>Generated by IcoMoon</metadata>
<defs>
<font id="icomoon" horiz-adv-x="1024">
<font-face units-per-em="1024" ascent="960" descent="-64" />
<missing-glyph horiz-adv-x="1024" />
<glyph unicode="&#x20;" horiz-adv-x="512" d="" />
<glyph unicode="&#xe900;" glyph-name="android" d="M143.269 626.039h-2.571c-33.724 0-61.053-27.557-61.053-61.053v-265.785c0-33.564 27.329-61.099 61.053-61.099h2.571c33.724 0 61.053 27.557 61.053 61.099v265.785c0 33.496-27.557 61.053-61.053 61.053v0zM233.563 196.71c0-30.993 25.19-55.979 56.183-55.979h59.961v-143.701c0-33.724 27.329-61.053 61.099-61.053h2.503c33.769 0 61.099 27.557 61.099 61.053v143.701h83.9v-143.701c0-33.724 27.557-61.053 61.053-61.053h2.571c33.724 0 61.053 27.557 61.053 61.053v143.701h60.006c30.72 0 56.138 24.986 56.138 55.979v419.476h-565.567v-419.476zM657.135 870.73l47.65 73.614c2.958 4.483 1.684 10.877-3.004 13.881-4.71 3.231-10.877 1.911-13.881-3.004l-49.516-75.981c-36.955 15.132-78.37 23.666-121.947 23.666-43.782 0-85.151-8.533-122.106-23.666l-49.334 75.981c-2.958 4.915-9.353 6.235-14.040 3.004-4.71-3.004-6.007-9.398-3.004-13.881l47.605-73.614c-85.811-42.075-143.906-121.492-143.906-212.446 0-5.575 0.432-11.105 0.865-16.68h567.706c0.387 5.575 0.819 11.105 0.819 16.68 0 90.954-58.027 170.371-143.906 212.446v0zM384.728 739.18c-15.132 0-27.329 12.197-27.329 27.329 0 15.201 12.197 27.102 27.329 27.102s27.329-11.924 27.329-27.102c0-15.155-12.174-27.329-27.329-27.329v0zM647.964 739.18c-15.132 0-27.329 12.197-27.329 27.329 0 15.201 12.197 27.102 27.329 27.102 15.201 0 27.329-11.924 27.329-27.102 0-15.155-12.151-27.329-27.329-27.329v0zM891.995 626.039h-2.571c-33.724 0-61.053-27.557-61.053-61.053v-265.785c0-33.564 27.557-61.099 61.053-61.099h2.571c33.724 0 61.053 27.557 61.053 61.099v265.785c0 33.496-27.489 61.053-61.053 61.053v0z" />
<glyph unicode="&#xe901;" glyph-name="arrow-down" d="M548.549 181.060l460.335 460.488c20.155 20.206 20.155 52.943 0 73.2-20.155 20.206-52.892 20.206-73.047 0l-423.81-423.963-423.81 423.912c-20.155 20.206-52.892 20.206-73.098 0-20.155-20.206-20.155-52.994 0-73.2l460.331-460.488c19.947-19.896 53.198-19.896 73.098 0.051z" />
<glyph unicode="&#xe902;" glyph-name="arrow-left" d="M245.060 411.451l460.488-460.335c20.206-20.155 52.943-20.155 73.2 0 20.206 20.155 20.206 52.892 0 73.047l-423.963 423.81 423.912 423.81c20.206 20.155 20.206 52.892 0 73.098-20.206 20.155-52.994 20.155-73.2 0l-460.488-460.331c-19.896-19.947-19.896-53.198 0.051-73.098z" />
<glyph unicode="&#xe903;" glyph-name="arrow-people" d="M813.989 178.005c82.716 0 150.005 67.288 150.005 150.005s-67.288 150.005-150.005 150.005-150.005-67.288-150.005-150.005 67.311-150.005 150.005-150.005zM210.011 658.011c82.716 0 150.005 67.288 150.005 150.005s-67.288 152.007-150.005 152.007-150.005-69.291-150.005-152.007 67.288-150.005 150.005-150.005zM512 899.994c105.609 0 195.265-80.373 209.852-181.999h-27.853c-11.537 0-22.027-6.622-27.034-16.998-4.983-10.399-3.595-22.733 3.595-31.767l119.99-150.005c5.712-7.122 14.336-11.241 23.438-11.241s17.727 4.119 23.438 11.241l119.99 150.005c7.214 9.034 8.579 21.367 3.595 31.767-5.006 10.377-15.497 16.998-27.034 16.998h-31.676c-14.973 134.827-129.57 242.005-268.334 242.005h-121.97c-16.589 0-29.992-13.426-29.992-29.992s13.403-30.015 29.992-30.015zM512-3.994c-105.609 0-195.265 80.373-209.852 181.999h27.853c11.537 0 22.027 6.622 27.034 16.998 4.983 10.399 3.595 22.733-3.595 31.767l-119.99 150.005c-11.423 14.245-35.453 14.245-46.876 0l-119.99-150.005c-7.214-9.034-8.579-21.367-3.595-31.767 5.006-10.377 15.497-16.998 27.034-16.998h31.676c14.973-134.827 129.57-242.005 268.334-242.005h121.97c16.589 0 29.992 13.426 29.992 29.992s-13.403 30.015-29.992 30.015zM813.989 117.999c-57.003 0-108.635 23.006-146.5 60.006-39.071-38.161-63.488-93.207-63.488-152.007v-60.006c0-16.589 13.426-29.992 29.992-29.992h359.993c16.589 0 29.992 13.426 29.992 29.992v60.006c0 58.778-24.439 113.846-63.488 152.007-37.865-37.001-89.498-60.006-146.5-60.006zM419.999 448v60.006c0 58.778-24.439 111.844-63.488 150.005-37.888-37.001-89.498-60.006-146.5-60.006s-108.635 23.006-146.5 60.006c-39.071-38.161-63.488-91.227-63.488-150.005v-60.006c0-16.589 13.426-29.992 29.992-29.992h359.993c16.566 0 29.992 13.403 29.992 29.992z" />
<glyph unicode="&#xe904;" glyph-name="arrow-right" d="M778.94 484.549l-460.488 460.335c-20.206 20.155-52.943 20.155-73.2 0-20.206-20.155-20.206-52.892 0-73.047l423.963-423.81-423.912-423.81c-20.206-20.155-20.206-52.892 0-73.098 20.206-20.155 52.994-20.155 73.2 0l460.488 460.331c19.896 19.947 19.896 53.198-0.051 73.098z" />
<glyph unicode="&#xe905;" glyph-name="arrow-top" d="M475.451 714.94l-460.335-460.488c-20.155-20.206-20.155-52.943 0-73.2 20.155-20.206 52.892-20.206 73.047 0l423.81 423.963 423.81-423.912c20.155-20.206 52.892-20.206 73.098 0 20.155 20.206 20.155 52.994 0 73.2l-460.331 460.488c-19.947 19.896-53.198 19.896-73.098-0.051z" />
<glyph unicode="&#xe906;" glyph-name="atoms" d="M934.002 543.118c-3.732 0-7.282-0.66-10.9-1.092l-106.405 208.805c15.588 16.179 25.304 38.093 25.304 62.305 0 49.63-40.368 89.998-89.998 89.998-39.071 0-72.044-25.145-84.469-60.006h-311.046c-12.425 34.839-45.42 60.006-84.469 60.006-49.63 0-89.998-40.368-89.998-89.998 0-24.212 9.717-46.103 25.304-62.305l-106.405-208.805c-3.618 0.432-7.168 1.092-10.9 1.092-49.63 0-89.998-40.368-89.998-89.998s40.368-89.998 89.998-89.998c3.732 0 7.282 0.66 10.9 1.092l106.405-208.805c-15.588-16.179-25.304-38.093-25.304-62.305 0-49.63 40.368-89.998 89.998-89.998 39.071 0 72.044 25.145 84.469 60.006h311.046c12.425-34.839 45.42-60.006 84.469-60.006 49.63 0 89.998 40.368 89.998 89.998 0 24.212-9.717 46.103-25.304 62.305l106.405 208.805c3.618-0.432 7.168-1.092 10.9-1.092 49.63 0 89.998 40.368 89.998 89.998s-40.368 89.998-89.998 89.998zM752.003 183.125c-17.385 0-33.496-5.188-47.263-13.744l-168.050 134.44c2.298 6.599 3.755 13.494 4.437 20.685l317.918 78.962c3.026-4.528 6.485-8.738 10.263-12.652l-106.405-208.805c-3.618 0.455-7.168 1.115-10.9 1.115zM271.997 183.125c-3.732 0-7.282-0.66-10.9-1.092l-106.405 208.805c2.139 2.23 3.982 4.71 5.894 7.145l201.569-66.514c0.341-17.772 5.734-34.315 14.973-48.151l-78.484-104.676c-8.465 2.64-17.294 4.483-26.647 4.483zM752.003 723.115c3.732 0 7.282 0.66 10.9 1.092l106.359-208.737-148.025 50.267c0.205 2.48 0.751 4.847 0.751 7.373 0 27.079-12.265 51.109-31.266 67.63l60.621 82.443c0.228 0 0.432-0.068 0.66-0.068zM526.95 382.76c-0.023 0.046-0.046 0.114-0.091 0.159l78.484 104.676c8.488-2.662 17.317-4.483 26.67-4.483 25.418 0 48.287 10.672 64.671 27.671l146.022-49.584-315.756-78.438zM545.018 595.046c-1.775-7.054-3.026-14.336-3.026-21.936 0-18.432 5.598-35.544 15.132-49.812l-78.484-104.676c-8.488 2.662-17.317 4.483-26.67 4.483-0.569 0-1.070-0.159-1.638-0.159l-117.623 313.617 212.309-141.517zM693.271 745.483l-60.621-82.443c-0.228 0-0.432 0.068-0.637 0.068-20.184 0-38.639-6.918-53.658-18.182l-207.258 138.172h296.437c5.257-14.7 14.154-27.534 25.737-37.615zM271.997 723.115c0.569 0 1.070 0.159 1.638 0.159l120.65-321.695c-4.733-4.005-9.034-8.42-12.88-13.312l-201.569 66.514c-0.432 23.529-9.921 44.828-25.145 60.644l106.405 208.805c3.618-0.455 7.168-1.115 10.9-1.115zM346.863 142.939l78.484 104.676c8.488-2.662 17.317-4.483 26.67-4.483 17.385 0 33.496 5.188 47.263 13.744l167.185-133.757h-309.976c-2.503 7.009-5.552 13.744-9.626 19.82z" />
<glyph unicode="&#xe907;" glyph-name="audience" horiz-adv-x="1023" d="M933.898 926.459h-491.707c-12.248 0-22.179-9.93-22.179-22.179v-172.909l24.61 15.293c6.272 3.909 12.953 6.522 19.77 7.953v127.46h447.327v-320.026h-447.327v51.766l-44.38-27.542v-46.426c0-12.248 9.93-22.202 22.179-22.202h491.707c12.248 0 22.179 9.953 22.179 22.202v364.429c0.023 12.248-9.93 22.179-22.179 22.179v0zM611.305 803.294c-5.84 7.408-16.566 8.658-23.974 2.841l-76.444-60.265c7.294-4.772 13.703-11.158 18.611-19.066 1.386-2.227 2.591-4.522 3.681-6.863l75.308 59.378c7.385 5.84 8.635 16.566 2.818 23.974v0zM306.232 896.122c0-35.268-28.587-63.878-63.878-63.878-35.268 0-63.878 28.61-63.878 63.878 0.023 35.291 28.61 63.878 63.878 63.878 35.291 0 63.878-28.587 63.878-63.878v0zM503.297 710.556c-8.976 14.453-27.974 18.884-42.426 9.93l-62.424-38.745c-0.273 51.766-0.136 24.292-0.295 57.629-0.205 40.017-32.905 72.559-72.922 72.559h-30.314c-25.906-67.173-17.566-42.244-39.54-99.26l9.249 40.267c0.636 3 0.182 6.158-1.318 8.862l-12.521 22.792 11.112 20.225c1.659 3.022-0.523 6.726-3.977 6.726h-30.541c-3.431 0-5.636-3.704-3.977-6.726l11.135-20.247-12.521-22.883c-1.454-2.659-1.932-5.727-1.341-8.703l7.999-40.336c-4.318 11.203-34.155 88.625-38.268 99.26h-30.928c-40.017 0-72.718-32.541-72.922-72.559l-1.136-226.402c-0.068-17.020 13.635-30.882 30.655-30.973h0.159c16.952 0 30.723 13.68 30.814 30.655l1.136 226.402v0.114c0.045 3.363 2.795 6.045 6.158 6.022s6.067-2.75 6.067-6.113v-320.775c28.224 1.204 54.356-8.976 73.967-26.837v125.142h15.975v-143.549c11.249-16.543 17.839-36.495 17.839-57.947 0-19.543-5.477-37.859-14.93-53.447 9.726-0.045 19.179-1.341 28.201-3.727 12.157 10.544 26.769 18.293 42.881 22.27 0 558.698-0.682 213.267-0.682 458.825 0 3.568 2.886 6.454 6.431 6.454 3.568 0 6.454-2.863 6.454-6.408 0.114-21.611 0.454-89.17 0.568-112.712 0.068-11.158 6.136-21.406 15.907-26.815 9.749-5.386 21.679-5.113 31.155 0.795l109.213 67.809c14.453 8.953 18.907 27.951 9.908 42.426v0zM925.331 314.336c0-37.336-30.269-67.605-67.605-67.605s-67.605 30.269-67.605 67.605c0 37.336 30.269 67.605 67.605 67.605s67.605-30.246 67.605-67.605v0zM1022.205 148.381c-0.205 42.358-34.836 76.808-77.194 76.808h-169.568c7.272-14.134 11.408-30.132 11.408-47.107 0-17.998-4.818-36.836-14.998-53.561 37.813-1.523 70.945-21.815 90.283-51.789h81.171v74.854c0 3.681 2.909 6.704 6.613 6.817 3.681 0.136 6.795-2.681 7.045-6.363v0l0.386-75.331h65.241l-0.386 75.672zM580.241 178.081c0 17.248 4.272 33.518 11.794 47.835h-150.525c6.954-13.885 10.885-29.519 10.885-46.062 0-19.452-5.454-37.859-14.93-53.47 31.109-0.136 59.833-13.066 80.557-34.541 20.111 19.634 47.516 31.814 77.671 31.996-10.521 16.93-15.452 35.904-15.452 54.243v0zM528.93 382.691c-37.336 0-67.605-30.269-67.605-67.605 0-37.245 30.201-67.605 67.605-67.605 37.041 0 67.605 29.928 67.605 67.605 0 37.29-30.201 67.605-67.605 67.605v0zM245.74 179.877c0 16.498 3.909 32.109 10.817 45.948-2.909 0.136 9.34 0.091-178.976 0.091-42.131 0-76.99-34.268-77.194-76.808l-0.386-76.376h65.241l0.386 76.058c0.023 3.772 3.068 6.817 6.84 6.795 3.75 0 6.817-3.068 6.817-6.817v-76.035h91.465c19.702 31.519 53.606 51.289 90.488 52.811-10.044 16.111-15.498 34.745-15.498 54.334v0zM164.864 382.691c-37.336 0-67.605-30.269-67.605-67.605 0-37.177 30.087-67.605 67.605-67.605 37.063 0 67.605 30.019 67.605 67.605 0 37.336-30.269 67.605-67.605 67.605v0zM844.342 12.399c-0.205 42.358-34.836 76.808-77.194 76.808h-171.023c-42.358 0-79.194-34.45-79.421-76.808l-0.545 1.772c-0.205 42.176-34.677 76.808-77.194 76.808h-171.023c-42.358 0-79.194-34.45-79.421-76.808l-0.386-78.171h65.241l0.386 77.853c0.023 3.25 2.659 5.863 5.908 5.84 3.25 0 5.863-2.636 5.863-5.886v-77.831h172.772v77.831c0 3.477 2.795 6.272 6.272 6.295 3.454 0 6.295-2.795 6.317-6.249l0.386-77.853h130.255l0.386 76.058c0.023 3.25 2.659 5.84 5.908 5.84s5.863-2.636 5.863-5.886v-76.035h172.772v76.035c0 3.477 2.795 6.295 6.272 6.295s6.295-2.795 6.317-6.272l0.386-76.058h65.241l-0.341 76.422zM419.558 180.149c0-37.768-30.632-68.4-68.4-68.4s-68.4 30.632-68.4 68.4c0 37.768 30.632 68.4 68.4 68.4 37.768-0.023 68.4-30.632 68.4-68.4v0zM751.809 178.354c0-37.768-30.61-68.4-68.377-68.4s-68.4 30.632-68.4 68.4c0 37.768 30.632 68.4 68.4 68.4s68.377-30.61 68.377-68.4v0z" />
<glyph unicode="&#xe908;" glyph-name="bigben" d="M750.934-29.866h-85.334v341.332h34.134c10.24 0 17.066 6.826 17.066 17.066v341.334c0 10.24-6.826 17.066-17.066 17.066h-11.946l-40.96 76.8c-3.414 5.12-8.534 8.534-15.36 8.534h-17.068v34.134c0 10.24-6.826 17.066-17.066 17.066h-8.534l-59.734 75.094v44.374c0 10.24-6.826 17.066-17.066 17.066s-17.066-6.826-17.066-17.066v-44.374l-59.734-75.094h-8.534c-10.24 0-17.066-6.826-17.066-17.066v-34.134h-17.066c-6.826 0-11.946-3.414-15.36-8.534l-40.96-76.8h-11.946c-10.24 0-17.066-6.826-17.066-17.066v-341.334c0-10.24 6.826-17.066 17.066-17.066h34.132v-341.334h-85.334c-10.24 0-17.066-6.826-17.066-17.066s6.826-17.066 17.066-17.066h477.866c10.24 0 17.066 6.826 17.066 17.066s-6.824 17.068-17.064 17.068zM460.8 21.334c0-10.24-6.826-17.066-17.066-17.066s-17.066 6.826-17.066 17.066v238.932c0 10.24 6.826 17.066 17.066 17.066s17.066-6.826 17.066-17.066v-238.932zM529.066 21.334c0-10.24-6.826-17.066-17.066-17.066s-17.066 6.826-17.066 17.066v238.932c0 10.24 6.826 17.066 17.066 17.066s17.066-6.826 17.066-17.066v-238.932zM597.334 21.334c0-10.24-6.826-17.066-17.066-17.066s-17.066 6.826-17.066 17.066v238.932c0 10.24 6.826 17.066 17.066 17.066s17.066-6.826 17.066-17.066v-238.932zM512 379.734c-66.56 0-119.466 52.906-119.466 119.466s52.906 119.466 119.466 119.466c66.56 0 119.466-52.906 119.466-119.466s-52.906-119.466-119.466-119.466zM546.134 516.266h-17.066v34.134c0 10.24-6.826 17.066-17.066 17.066s-17.066-6.826-17.066-17.066v-51.2c0-10.24 6.826-17.066 17.066-17.066h34.134c10.24 0 17.066 6.826 17.066 17.066s-6.828 17.066-17.068 17.066z" />
<glyph unicode="&#xe909;" glyph-name="binary" horiz-adv-x="1025" d="M170.777 502.698v61.084c0 46.991-38.317 85.286-85.286 85.286s-85.491-38.317-85.491-85.286v-61.084c0-46.991 38.317-85.286 85.286-85.286 46.991 0 85.491 38.090 85.491 85.286zM113.927 502.698c0-15.732-12.704-28.436-28.436-28.436s-28.436 12.704-28.436 28.436v61.084c0 15.732 12.704 28.436 28.436 28.436s28.436-12.704 28.436-28.436v-61.084zM199.213 728.321c46.991 0 85.286 38.317 85.286 85.286v61.084c0 46.991-38.317 85.286-85.286 85.286s-85.286-38.317-85.286-85.286v-61.084c0-47.174 38.112-85.286 85.286-85.286zM170.777 874.714c0 15.732 12.704 28.436 28.436 28.436s28.436-12.704 28.436-28.436v-61.084c0-15.732-12.704-28.436-28.436-28.436s-28.436 12.704-28.436 28.436v61.084zM28.436 728.321c15.732 0 28.436 12.704 28.436 28.436v174.807c0 15.732-12.704 28.436-28.436 28.436s-28.436-12.704-28.436-28.436v-174.807c0-15.732 12.704-28.436 28.436-28.436zM540.584 728.321c46.991 0 85.286 38.317 85.286 85.286v61.084c0 46.991-38.317 85.286-85.286 85.286s-85.286-38.317-85.286-85.286v-61.084c-0.023-47.174 38.294-85.286 85.286-85.286zM512.148 874.714c0 15.732 12.704 28.436 28.436 28.436s28.436-12.704 28.436-28.436v-61.084c0-15.732-12.704-28.436-28.436-28.436s-28.436 12.704-28.436 28.436v61.084zM369.99 728.321c15.732 0 28.436 12.704 28.436 28.436v174.807c0 15.732-12.704 28.436-28.436 28.436s-28.436-12.704-28.436-28.436v-174.807c-0.182-15.732 12.704-28.436 28.436-28.436zM881.933 728.321c46.991 0 85.286 38.317 85.286 85.286v61.084c0 46.991-38.317 85.286-85.286 85.286s-85.286-38.317-85.286-85.286v-61.084c0-47.174 38.317-85.286 85.286-85.286zM853.496 874.714c0 15.732 12.704 28.436 28.436 28.436s28.436-12.704 28.436-28.436v-61.084c0-15.732-12.704-28.436-28.436-28.436s-28.436 12.704-28.436 28.436v61.084zM711.361 728.321c15.732 0 28.436 12.704 28.436 28.436v174.807c0 15.732-12.704 28.436-28.436 28.436s-28.436-12.704-28.436-28.436v-174.807c0-15.732 12.704-28.436 28.436-28.436zM199.213 346.219c-46.991 0-85.286-38.317-85.286-85.286v-61.084c0-46.969 38.317-85.286 85.286-85.286s85.286 38.317 85.286 85.286v61.084c0 46.991-38.317 85.286-85.286 85.286zM227.649 199.849c0-15.732-12.704-28.436-28.436-28.436s-28.436 12.704-28.436 28.436v61.084c0 15.732 12.704 28.436 28.436 28.436s28.436-12.704 28.436-28.436v-61.084zM28.436 346.219c-15.732 0-28.436-12.704-28.436-28.436v-174.807c0-15.732 12.704-28.436 28.436-28.436s28.436 12.704 28.436 28.436v174.807c-0.023 15.732-12.727 28.436-28.436 28.436zM872.666 417.594c0 0 0-0.182 0 0 0.797-0.182 1.412-0.182 0 0zM874.488 345.832c2.618 23.587 1.821 47.583-1.821 71.785-0.797 0-1.616 0.205 0 0.205 46.991 0 94.757 27.025 94.757 85.081v61.084c0 46.991-38.317 85.286-85.286 85.286-43.349 0-79.435-32.671-84.694-74.608-53.23 57.259-129.044 93.163-213.124 93.163-73.788 0-140.952-27.617-192.36-72.992-12.499 31.851-43.349 54.436-79.435 54.436-46.991 0-85.286-38.317-85.286-85.286v-61.084c0-41.527 29.643-76.020 68.962-83.669-2.026-14.116-3.62-28.436-3.62-43.144 0-160.896 130.866-291.762 291.762-291.762 49.405 0 95.986 12.499 136.899 34.287l157.481-157.481c31.259-32.876 88.724-34.082 120.78 0 34.47 34.287 32.261 88.519 0 120.78l-57.874 57.259c15.937 15.527 25.818 37.111 25.818 60.697v61.084c-2.436 42.939-31.669 87.085-92.958 84.876zM853.496 563.783c0 15.732 12.704 28.436 28.436 28.436s28.436-12.704 28.436-28.436v-61.084c0-15.732-12.704-28.436-28.436-28.436s-28.436 12.704-28.436 28.436v61.084zM881.933 289.37c15.732 0 28.436-12.704 28.436-28.436v-61.084c0-8.060-3.438-15.322-8.879-20.559l-47.993 47.993v33.673c2.436 17.121 11.497 27.002 28.436 28.413zM310.112 474.467h-0.205c-14.525 1.412-25.818 13.501-25.818 28.231v61.084c0 15.732 12.704 28.436 28.436 28.436s28.436-12.704 28.436-28.436v-27.23c-12.704-19.352-22.995-40.116-30.85-62.086zM584.32 140.973c-129.659 0-234.912 105.048-234.912 234.912 0 129.659 105.048 234.912 234.912 234.912 129.841 0 234.912-105.048 234.912-234.912-0.205-129.864-105.253-234.912-234.912-234.912zM958.954 1.023c-10.678-10.678-29.438-10.678-40.116 0l-149.398 149.398c14.708 12.089 28.231 25.613 40.116 40.116l149.398-149.398c10.291-10.86 11.702-28.618 0-40.116zM584.32 533.958c-15.732 0-28.436-12.704-28.436-28.436v-147.805c0-15.732 12.704-28.436 28.436-28.436s28.436 12.704 28.436 28.436v147.805c0 15.527-12.704 28.436-28.436 28.436zM584.32 290.986c-15.732 0-28.436-12.704-28.436-28.436v-16.529c0-15.732 12.704-28.436 28.436-28.436s28.436 12.704 28.436 28.436v16.529c0 15.732-12.704 28.436-28.436 28.436z" />
<glyph unicode="&#xe90a;" glyph-name="blank" d="M572 900v60h-120v-60h-104v-120h326v120zM734 840v-120h-446v120h-126v-904h700v904h-128zM312 350h200v-60h-200v60zM485.132 45.624l-86.546 85.672 42.21 42.64 44.004-43.558 98.236 98.778 42.542-42.31-140.446-141.222zM712 410h-400v60h400v-60zM712 530h-400v60h400v-60z" />
<glyph unicode="&#xe90b;" glyph-name="bottom" d="M861.181 270.45c14.438 13.95 14.438 37.168 0 51.606-13.95 13.95-37.168 13.95-51.086 0l-261.674-261.674v863.49c-0.033 20.129-16.032 36.128-36.16 36.128s-36.648-15.999-36.648-36.128v-863.49l-261.187 261.674c-14.438 13.95-37.689 13.95-51.606 0-14.438-14.438-14.438-37.689 0-51.606l323.622-323.622c13.95-14.438 37.168-14.438 51.086 0l323.654 323.622z" />
<glyph unicode="&#xe90c;" glyph-name="businessman" d="M211.38 238.538h-139.656c-25.709 0-46.538-20.829-46.538-46.538v-209.462c0-25.709 20.85-46.538 46.538-46.538h139.634c25.709 0 46.559 20.85 46.559 46.538v209.462c0 25.709-20.85 46.538-46.538 46.538zM572.263 401.462h-139.634c-25.709 0-46.538-20.85-46.538-46.581v-372.366c0-25.709 20.85-46.538 46.538-46.538h139.634c25.709 0 46.559 20.85 46.559 46.538v372.387c0 25.709-20.85 46.559-46.559 46.559zM933.213 587.634h-139.634c-25.709 0-46.559-20.85-46.559-46.538v-558.559c0-25.709 20.85-46.538 46.559-46.538h139.634c25.709 0 46.559 20.85 46.559 46.538v558.559c-0.022 25.709-20.829 46.538-46.559 46.538zM896.523 926.862c0-18.302-14.837-33.138-33.138-33.138s-33.138 14.837-33.138 33.138c0 18.302 14.837 33.138 33.138 33.138s33.138-14.837 33.138-33.138zM995.045 937.603c-6.144 8.257-17.844 9.935-26.101 3.747l-75.95-56.865h-12.005c-5.12 0-9.586-2.222-12.963-5.599l8.693-63.793-13.334-11.308-13.334 11.308 8.693 63.793c-3.377 3.377-7.8 5.599-12.963 5.599h-11.983l-75.929 56.865c-8.236 6.188-19.957 4.51-26.123-3.747-6.188-8.257-4.51-19.957 3.747-26.123l80.961-60.59c3.116-2.331 6.819-3.617 10.698-3.704v-84.273l-34.467-120.614c-2.832-9.913 2.919-20.262 12.833-23.094 1.678-0.479 3.421-0.719 5.12-0.719 8.127 0 15.6 5.36 17.931 13.552l34.816 121.878 34.816-121.878c2.331-8.192 9.826-13.552 17.953-13.552 1.699 0 3.442 0.24 5.142 0.719 9.913 2.832 15.643 13.159 12.811 23.094l-34.467 120.614v84.251c3.878 0.087 7.626 1.373 10.719 3.704l80.961 60.612c8.214 6.188 9.957 17.866 3.726 26.123z" />
<glyph unicode="&#xe90d;" glyph-name="businessman-ascending-by-stair-steps" d="M690.252 814.759c0-49.014-39.734-88.748-88.748-88.748s-88.748 39.734-88.748 88.748c0 49.014 39.734 88.748 88.748 88.748s88.748-39.734 88.748-88.748zM997.107 302.035h-113.625c-14.791 0-26.893-12.102-26.893-26.893v-70.192h-141.055c-14.791 0-26.893-12.102-26.893-26.893v-69.923h-133.527c-14.791 0-26.893-12.102-26.893-26.893v-61.855c0-14.791 12.102-26.893 26.893-26.893h441.994c14.791 0 26.893 12.102 26.893 26.893v255.757c0 14.791-12.102 26.893-26.893 26.893zM207.381 328.256c-6.992-13.043-23.397-18.019-36.441-10.892l-156.789 84.446c-13.043 6.992-18.019 23.396-10.892 36.441l52.846 98.161c6.992 13.043 23.397 18.019 36.441 10.892l156.923-84.446c13.043-6.992 18.019-23.397 10.892-36.441l-52.98-98.161zM318.451 412.298v-159.209l-99.102-99.101c-15.733-15.733-15.733-41.281 0-57.014 7.934-7.934 18.153-11.833 28.507-11.833s20.708 3.898 28.507 11.833l110.936 110.936c0.538 0.538 0.941 0.941 1.345 1.479 0.136 0.269 0.403 0.405 0.538 0.672 0.269 0.269 0.537 0.538 0.807 0.808s0.403 0.537 0.672 0.941c0.136 0.268 0.403 0.403 0.538 0.672 0.269 0.268 0.537 0.672 0.672 0.94 0.134 0.136 0.269 0.405 0.403 0.538 0.269 0.403 0.403 0.672 0.672 1.076 0.134 0.136 0.269 0.403 0.403 0.538 0.269 0.403 0.403 0.672 0.672 1.076 0.136 0.269 0.269 0.403 0.403 0.672 0.136 0.403 0.405 0.672 0.538 1.076 0.134 0.269 0.269 0.538 0.403 0.808 0.136 0.268 0.269 0.672 0.403 0.94 0.136 0.269 0.269 0.538 0.405 0.941 0.134 0.269 0.268 0.538 0.268 0.808 0.136 0.403 0.269 0.672 0.405 1.076 0.134 0.269 0.134 0.537 0.268 0.672 0.136 0.403 0.269 0.807 0.405 1.209 0 0.269 0.134 0.405 0.134 0.672 0.134 0.405 0.269 0.808 0.403 1.21 0 0.134 0.136 0.403 0.136 0.672 0.134 0.403 0.134 0.941 0.268 1.345 0 0.269 0.136 0.403 0.136 0.672 0.134 0.403 0.134 0.941 0.269 1.345 0 0.269 0 0.538 0.134 0.672 0 0.403 0.134 0.807 0.134 1.21 0 0.268 0 0.672 0.136 0.94 0 0.405 0 0.672 0.134 1.077 0 0.537 0 1.209 0 1.748 0 0.134 0 0.134 0 0.269v149.795l-79.605 35.097c-1.081-3.094-1.349-6.051-1.349-9.28zM913.468 596.789c-6.991 21.111-29.85 32.541-50.962 25.549l-138.905-46.257-108.246 108.246c-0.405 0.403-0.808 0.807-1.21 1.21-3.227 3.496-7.127 6.454-11.833 8.606l-3.227 1.479-77.183-72.209 9.008 102.195-58.761 25.818c-5.379 2.42-10.221 2.958-16.405 2.958-1.076 0-180.052 0-180.052 0-0.134 0-0.403 0-0.538 0h-0.269c-0.538 0-1.21 0-1.748 0-0.134 0-0.269 0-0.403 0-0.538 0-0.941 0-1.479-0.134-0.269 0-0.538 0-0.807-0.134-0.403 0-0.672-0.134-1.076-0.134s-0.807-0.134-1.21-0.134c-0.269 0-0.403-0.134-0.672-0.134-0.538-0.134-0.941-0.134-1.479-0.269-0.134 0-0.269 0-0.403-0.134-0.538-0.134-1.076-0.269-1.614-0.403h-0.134c-0.538-0.134-1.21-0.403-1.748-0.538v0c-0.538-0.134-1.21-0.403-1.748-0.672 0 0 0 0-0.134 0-0.538-0.269-1.076-0.403-1.748-0.672 0 0-0.134 0-0.134-0.134-0.538-0.269-1.076-0.403-1.479-0.672-0.134 0-0.269-0.134-0.403-0.134-0.403-0.269-0.807-0.403-1.21-0.672-0.269-0.134-0.403-0.269-0.672-0.403s-0.672-0.403-0.941-0.538-0.672-0.403-0.941-0.538c-0.134-0.134-0.403-0.269-0.538-0.403-0.403-0.269-0.807-0.538-1.21-0.807-0.134-0.134-0.269-0.134-0.269-0.269-0.403-0.403-0.941-0.672-1.345-1.076l-0.134-0.134c-0.538-0.403-0.941-0.807-1.345-1.21v0c-0.403-0.403-0.941-0.807-1.345-1.345v0c-0.403-0.403-0.807-0.941-1.21-1.345 0 0 0-0.134-0.134-0.134-0.403-0.403-0.807-0.807-1.076-1.345-0.134-0.134-0.134-0.134-0.269-0.269-0.269-0.403-0.672-0.807-0.941-1.21-0.134-0.134-0.269-0.403-0.403-0.538-0.269-0.269-0.403-0.672-0.672-0.941-0.134-0.269-0.403-0.538-0.538-0.807s-0.269-0.403-0.403-0.672-0.538-0.807-0.672-1.21c-0.134-0.134-0.134-0.269-0.269-0.403-0.269-0.538-0.538-1.076-0.807-1.614v-0.134l-0.134-0.134c-0.134-0.134-0.134-0.269-0.269-0.538l-76.377-152.62c-9.951-19.901-1.883-44.105 18.019-54.056 5.782-2.958 11.968-4.303 18.019-4.303 14.791 0 29.045 8.203 36.172 22.322l65.486 130.971h96.548l-89.152-176.018c-7.665-17.346 0.269-37.516 17.615-45.181l0.672-0.269 240.831-129.223v-132.046c0-22.323 18.019-40.34 40.34-40.34 22.323 0 40.34 18.017 40.34 40.34v155.175c0 0.538 0 1.076 0 1.614 0 0.134 0 0.403 0 0.538 0 0.403 0 0.807-0.134 1.345 0 0.268 0 0.537-0.134 0.807 0 0.269-0.136 0.538-0.136 0.941s-0.134 0.807-0.134 1.209c0 0.136 0 0.269-0.136 0.538-0.134 0.538-0.134 1.076-0.269 1.479v0c-0.807 3.766-2.151 7.396-4.034 10.757-0.134 0.269-0.403 0.672-0.537 0.941-0.136 0.269-0.269 0.403-0.403 0.672-2.286 3.765-5.11 7.127-8.606 9.951-0.134 0.134-0.134 0.134-0.269 0.269-0.269 0.268-0.672 0.537-0.941 0.807-0.268 0.134-0.403 0.403-0.672 0.538s-0.537 0.403-0.807 0.537c-0.269 0.269-0.672 0.403-0.941 0.672-0.134 0.136-0.403 0.269-0.537 0.403-0.405 0.269-0.808 0.538-1.345 0.808l-0.136 0.134-123.71 77.184 75.438 148.721 105.826-105.826c0.269-0.269 0.538-0.538 0.808-0.807 0.403-0.403 0.941-0.807 1.345-1.21 0.269-0.134 0.403-0.403 0.672-0.538 0.672-0.538 1.345-1.076 2.151-1.614 0.136-0.134 0.269-0.134 0.403-0.269 1.614-1.21 3.362-2.151 5.111-3.093v0c1.748-0.941 3.629-1.614 5.513-2.286 0.134 0 0.134 0 0.269-0.134 0.941-0.269 1.881-0.538 2.824-0.807 0.134 0 0.269 0 0.403-0.134 0.808-0.134 1.48-0.269 2.286-0.403 0.269 0 0.538-0.134 0.807-0.134 0.808-0.134 1.614-0.269 2.422-0.269 0.403 0 0.672 0 1.076-0.134 0.672 0 1.209 0 1.881-0.134 0.269 0 0.405 0 0.672 0 0.269 0 0.405 0 0.672 0 0.672 0 1.345 0 1.883 0.134 0.269 0 0.672 0 0.941 0.134 0.807 0.134 1.748 0.134 2.555 0.269 0.268 0 0.403 0.134 0.672 0.134 2.017 0.403 4.034 0.807 5.915 1.479v0l0.269 0.134c0.134 0 0.269 0.134 0.403 0.134l161.899 53.921c20.705 7.26 32.135 30.119 25.007 51.232z" />
<glyph unicode="&#xe90e;" glyph-name="c" d="M630.298 464.976l-2.77-17.724h21.444l2.77 17.724zM1011.498 947.502c-7.998 8.004-18.852 12.498-30.17 12.498l-938.668-0.060c-23.56-0.002-42.66-19.1-42.66-42.666v-938.606c0-23.564 19.1-42.668 42.666-42.668h938.666c23.564 0 42.666 19.104 42.666 42.666v938.668c0.002 11.318-4.496 22.168-12.5 30.168zM370.066 287.574c-62.284 0-99.474 38.17-99.474 102.104v117.014c0 62.756 38.55 101.74 100.606 101.74 65.052 0 99.088-42.444 99.088-84.372 0-32.882-23.628-36.432-33.79-36.432-21.868 0-32.7 14.694-33.732 29.26-0.012 0.174-0.022 0.344-0.032 0.518-0.84 17.992-9.976 25.33-31.536 25.33-20.916 0-33.022-5.896-33.022-36.044v-117.014c0.002-26.888 9.034-36.42 34.534-36.42 26.7 0 28.006 10.442 30.166 27.742 2.168 17.316 15.36 28.504 33.622 28.504 10.16 0 33.79-3.586 33.79-36.81 0-42.298-34.426-85.12-100.22-85.12zM741.212 464.976h-23.372l-2.878-17.72h11.906c16.682 0 30.776-14.264 30.776-31.146 0-16.968-13.128-30.772-29.26-30.772h-23.634l-8.894-57.068c-0.1-0.632-0.222-1.252-0.378-1.868-3.422-13.75-16.572-23.728-31.266-23.728-18.526 0-33.038 14.18-33.038 32.282 0 1.078 0.082 2.156 0.244 3.22l7.2 47.164h-21.16l-8.878-56.71c-2.398-16.762-17.908-25.956-31.27-25.956-18.522 0-33.032 14.18-33.032 32.282 0 1.042 0.076 2.080 0.228 3.112l6.966 47.272h-11.15c-17.61 0-30.396 12.942-30.396 30.772 0 17.468 12.69 31.146 28.882 31.146h23.15l2.662 17.72h-11.466c-17.61 0-30.396 13.102-30.396 31.152 0 17.252 12.69 30.766 28.882 30.766h23.298l8.098 51.086c0.068 0.44 0.154 0.878 0.254 1.314 2.938 13.152 15.378 22.34 30.256 22.34 19.046 0 33.41-13.878 33.41-32.282 0-1.126-0.088-2.252-0.268-3.368l-6.246-39.094h21.774l8.098 51.086c0.068 0.43 0.15 0.856 0.242 1.28 2.922 13.172 15.366 22.374 30.268 22.374 19.044 0 33.41-13.878 33.41-32.282 0-1.126-0.088-2.252-0.268-3.368l-6.246-39.094h11.98c16.678 0 30.766-14.088 30.766-30.766 0.006-17.172-13.122-31.146-29.254-31.146z" />
<glyph unicode="&#xe90f;" glyph-name="calendar" d="M592.842 421.080v0c-29.799 0-53.896-24.128-53.896-53.923 0-29.74 24.155-53.896 53.896-53.896v0c29.74 0 53.896 24.155 53.896 53.896 0.003 29.795-24.1 53.923-53.896 53.923zM431.155 474.948c29.754 0 53.896 24.142 53.896 53.896 0 29.775-24.142 53.889-53.896 53.889-29.747 0-53.889-24.114-53.889-53.889 0-29.754 24.142-53.896 53.889-53.896zM592.842 582.732v0c-29.799 0-53.896-24.114-53.896-53.889 0-29.754 24.1-53.896 53.896-53.896v0c29.74 0 53.896 24.142 53.896 53.896 0.003 29.775-24.1 53.889-53.896 53.889zM646.741 852.214h-269.475v-107.791h269.475v107.791zM754.532 474.948c29.727 0 53.896 24.142 53.896 53.896 0 29.775-24.114 53.889-53.896 53.889-29.799 0-53.896-24.114-53.896-53.889 0-29.754 24.155-53.896 53.896-53.896zM754.532 313.261c29.727 0 53.896 24.155 53.896 53.896 0 29.795-24.114 53.896-53.896 53.896-29.799 0-53.896-24.1-53.896-53.896 0-29.74 24.155-53.896 53.896-53.896zM431.155 313.261c29.754 0 53.896 24.155 53.896 53.896 0 29.795-24.114 53.923-53.896 53.923-29.775 0-53.889-24.128-53.889-53.923 0-29.74 24.142-53.896 53.889-53.896zM269.475 151.571c29.747 0 53.896 24.169 53.896 53.896 0 29.795-24.149 53.896-53.896 53.896-29.775 0-53.896-24.1-53.896-53.896 0-29.727 24.145-53.896 53.896-53.896zM916.205 852.214h-53.878v-107.791h53.878v-700.626h-808.414v700.623h53.889v107.795h-53.889c-59.529 0-107.791-48.246-107.791-107.795v-700.602c0-59.563 48.263-107.819 107.791-107.819h808.411c59.539 0 107.791 48.259 107.791 107.819v700.602c0.003 59.549-48.252 107.795-107.788 107.795zM269.475 313.261c29.747 0 53.896 24.155 53.896 53.896 0 29.795-24.149 53.923-53.896 53.923-29.775 0-53.896-24.128-53.896-53.923 0-29.74 24.145-53.896 53.896-53.896zM269.475 474.948c29.747 0 53.896 24.142 53.896 53.896 0 29.775-24.149 53.889-53.896 53.889-29.775 0-53.896-24.114-53.896-53.889 0-29.754 24.145-53.896 53.896-53.896zM431.155 151.571c29.754 0 53.896 24.169 53.896 53.896 0 29.795-24.142 53.896-53.896 53.896-29.747 0-53.889-24.1-53.889-53.896 0-29.727 24.142-53.896 53.889-53.896zM269.475 744.419c29.747 0 53.896 24.142 53.896 53.896v107.784c0 29.785-24.121 53.899-53.896 53.899-29.751 0-53.896-24.114-53.896-53.896v-107.784c0-29.757 24.145-53.899 53.896-53.899zM754.532 744.419c29.727 0 53.896 24.142 53.896 53.896v107.784c0 29.785-24.169 53.899-53.896 53.899-29.799 0-53.896-24.114-53.896-53.896v-107.784c0-29.757 24.155-53.899 53.896-53.899z" />
<glyph unicode="&#xe910;" glyph-name="calendar-clock" d="M128.001 799.996v128.003c0 17.689 14.311 32 32.004 32 17.685 0 31.996-14.311 31.996-32v-128.003c0-17.685-14.311-31.996-31.996-31.996-17.694-0.002-32.004 14.311-32.004 31.996zM672.006 767.998c17.681 0 32 14.311 32 31.996v128.005c0 17.689-14.319 32-32 32-17.689 0-32.011-14.311-32.011-32v-128.003c0-17.685 14.321-31.998 32.011-31.998zM1023.998 192.007c0-141.389-114.621-256.008-255.999-256.008-141.368 0-255.997 114.619-255.997 256.008 0 141.368 114.627 255.993 255.997 255.993 141.379 0 255.999-114.623 255.999-255.993zM960.006 192.007c0 105.86-86.126 191.997-192.005 191.997-105.871 0-191.997-86.134-191.997-191.997 0-105.882 86.126-192.005 191.997-192.005 105.879 0 192.005 86.124 192.005 192.005zM256.004 575.999h-128.003v-127.999h128.003v127.999zM128.001 255.999h128.003v128.005h-128.003v-128.005zM320 448h128.005v127.999h-128.005v-127.999zM320 255.999h128.005v128.005h-128.005v-128.005zM64.005 198.37v441.631h703.996v-128.003h64.003v249.622c0 38.876-31.006 70.38-69.312 70.38h-26.69v-32.007c0-35.246-28.693-63.998-63.992-63.998-35.309 0-64 28.752-64 63.998v32.007h-384.009v-32.007c0-35.246-28.687-63.998-63.992-63.998-35.314 0-64.003 28.752-64.003 63.998v32.007h-26.659c-38.308 0-69.344-31.504-69.344-70.38v-563.252c0-38.747 31.036-70.374 69.344-70.374h378.659v64.011h-378.659c-2.9 0.002-5.341 2.997-5.341 6.365zM639.996 448v127.999h-127.992v-127.999h127.992zM864.001 192.007h-96.003v96.003c0 17.679-14.311 31.99-32 31.99s-31.992-14.311-31.992-31.99v-128.013c0-17.681 14.302-32 31.992-32h128.003c17.689 0 32 14.319 32 32 0 17.689-14.311 32.011-32 32.011z" />
<glyph unicode="&#xe911;" glyph-name="city" d="M224 640h-64v-64h64v64zM480 704h-64v-64h64v64zM608 704h-64v-64h64v64zM736 704h-64v-64h64v64zM480 832h-64v-64h64v64zM608 832h-64v-64h64v64zM736 832h-64v-64h64v64zM480 448h-64v-64h64v64zM608 448h-64v-64h64v64zM736 448h-64v-64h64v64zM480 320h-64v-64h64v64zM736 320h-64v-64h64v64zM480 192h-64v-64h64v64zM736 192h-64v-64h64v64zM480 576h-64v-64h64v64zM608 576h-64v-64h64v64zM736 576h-64v-64h64v64zM224 512h-64v-64h64v64zM224 384h-64v-64h64v64zM224 256h-64v-64h64v64zM224 128h-64v-64h64v64zM608 320h-64v-64h64v64zM928 512h-64v384c0 35.376-28.624 64-64 64h-448c-35.376 0-64-28.624-64-64v-128h-192c-35.376 0-64-28.624-64-64v-704c0-35.376 28.624-64 64-64h832c35.376 0 64 28.624 64 64v448c0 35.376-28.624 64-64 64zM288 0h-192v704h192v-704zM800 0h-192v192h-64v-192h-192v896h448v-896zM928 0h-64v64h64v-64zM928 128h-64v64h64v-64zM928 256h-64v64h64v-64zM928 384h-64v64h64v-64z" />
<glyph unicode="&#xe912;" glyph-name="clock" d="M512 960c-282.317 0-512-229.683-512-512s229.683-512 512-512 512 229.683 512 512-229.683 512-512 512zM512 44.945c-222.243 0-403.066 180.802-403.066 403.055s180.823 403.055 403.066 403.055 403.066-180.802 403.066-403.055-180.823-403.055-403.066-403.055zM778.834 463.809h-230.094v276.657c0 23.281-18.876 42.157-42.157 42.157s-42.157-18.876-42.157-42.157v-318.814c0-23.281 18.876-42.157 42.157-42.157h272.252c23.281 0 42.157 18.876 42.157 42.157s-18.876 42.157-42.157 42.157z" />
<glyph unicode="&#xe913;" glyph-name="close" d="M1024 857.6l-102.4 102.4-409.6-409.6-409.6 409.6-102.4-102.4 409.6-409.6-409.6-409.6 102.4-102.4 409.6 409.6 409.6-409.6 102.4 102.4-409.6 409.6z" />
<glyph unicode="&#xe914;" glyph-name="code" d="M638.469 821.8l-34.702 9.513c-4.467 1.49-8.867 1.021-13.145-1.401-4.292-2.424-7.191-6.064-8.681-10.913l-208.72-722.405c-1.49-4.851-1.023-9.425 1.401-13.71 2.424-4.292 6.056-7.183 10.913-8.673l34.693-9.517c4.476-1.501 8.861-1.031 13.151 1.395 4.292 2.436 7.185 6.064 8.673 10.905l208.726 722.417c1.488 4.849 1.025 9.423-1.403 13.718-2.426 4.292-6.054 7.183-10.905 8.671zM325.675 680.779c0 4.849-1.868 9.143-5.598 12.871l-27.982 27.98c-3.73 3.73-8.022 5.6-12.871 5.6s-9.143-1.872-12.871-5.6l-260.756-260.756c-3.736-3.73-5.598-8.022-5.598-12.871s1.868-9.141 5.598-12.869l260.754-260.756c3.728-3.736 8.014-5.594 12.871-5.594s9.143 1.864 12.871 5.594l27.982 27.964c3.73 3.728 5.598 8.022 5.598 12.877 0 4.843-1.868 9.135-5.598 12.863l-219.909 219.921 219.911 219.906c3.736 3.728 5.598 8.022 5.598 12.871zM1018.404 460.88l-260.762 260.756c-3.728 3.728-8.022 5.6-12.863 5.6-4.857 0-9.135-1.872-12.877-5.6l-27.97-27.978c-3.728-3.73-5.588-8.016-5.588-12.871s1.858-9.143 5.588-12.871l219.915-219.911-219.915-219.923c-3.728-3.728-5.588-8.022-5.588-12.863 0-4.857 1.858-9.149 5.588-12.877l27.97-27.964c3.741-3.736 8.022-5.594 12.877-5.594 4.843 0 9.135 1.864 12.863 5.594l260.762 260.754c3.73 3.728 5.594 8.028 5.594 12.877 0 4.851-1.864 9.143-5.594 12.871z" />
<glyph unicode="&#xe915;" glyph-name="codeman" d="M508.018 382.487c70.633 0 236.749 85.015 236.749 288.768 0 159.471-21.504 288.745-236.749 288.745s-236.772-129.274-236.772-288.768c0.023-203.708 166.116-288.745 236.772-288.745v0zM306.654 719.451c16.634 32.154 52.611 69.313 129.957 67.675 0 0 46.126-111.844 272.498-61.622 0.91-17.863 1.206-36.090 1.206-54.249 0-99.578-43.964-161.291-80.873-195.516-46.467-43.122-98.076-58.778-121.424-58.778s-74.957 15.633-121.424 58.778c-36.887 34.224-80.873 95.937-80.873 195.516 0 16.111 0.25 32.267 0.933 48.196v0zM947.564 86.346c-12.106 75.162-36.978 171.964-86.881 206.37-34.088 23.506-153.008 87.040-203.799 114.165l-0.865 0.455c-5.803 3.095-12.902 2.48-18.068-1.57-26.601-20.89-55.751-34.953-86.585-41.847-5.302-1.161-9.671-4.87-11.742-9.876l-31.607-76.754-31.607 76.754c-2.071 5.029-6.44 8.715-11.742 9.876-30.879 6.872-60.006 20.958-86.608 41.847-5.166 4.050-12.265 4.665-18.068 1.57-50.176-26.806-170.553-91.637-204.504-114.529-57.458-38.707-82.58-178.79-87.017-206.484-0.432-2.753-0.182-5.552 0.728-8.169 2.071-5.78 54.795-142.154 438.818-142.154 384 0 436.747 136.374 438.795 142.177 0.933 2.617 1.206 5.439 0.751 8.169v0zM463.576 131.994c0-1.161-0.683-2.207-1.752-2.662l-47.377-20.753 47.377-20.753c1.047-0.478 1.752-1.525 1.752-2.685v-15.519c0-1.001-0.501-1.934-1.343-2.48-0.478-0.296-1.024-0.455-1.593-0.455-0.41 0-0.819 0.091-1.229 0.273l-70.269 32.654c-1.024 0.478-1.707 1.525-1.707 2.64v12.607c0 1.138 0.683 2.185 1.707 2.662l70.269 32.654c0.91 0.432 1.98 0.364 2.822-0.182s1.343-1.479 1.343-2.48v-15.519zM535.074 169.085l-31.357-106.155c-0.364-1.252-1.502-2.094-2.799-2.094h-14.791c-0.933 0-1.798 0.432-2.344 1.183-0.569 0.728-0.728 1.684-0.478 2.571l31.334 106.155c0.364 1.252 1.502 2.094 2.799 2.094h14.791c0.91 0 1.798-0.432 2.344-1.161 0.569-0.751 0.751-1.707 0.501-2.594v0zM628.599 101.82c0-1.161-0.66-2.185-1.707-2.685l-70.292-32.199c-0.387-0.182-0.796-0.273-1.206-0.273-0.546 0-1.092 0.159-1.57 0.455-0.842 0.546-1.365 1.479-1.365 2.48v15.519c0 1.183 0.705 2.23 1.775 2.685l48.401 20.753-48.401 20.73c-1.070 0.455-1.775 1.525-1.775 2.685v15.519c0 1.001 0.523 1.911 1.365 2.458 0.819 0.546 1.889 0.614 2.776 0.205l70.292-32.222c1.047-0.478 1.707-1.525 1.707-2.662v-13.449zM462.484 590.928c26.624 13.881 35.817 60.279 36.204 62.35 0.023 0.023 0.842 3.095 9.284 3.095l0.683 0.023c6.531 0 8.556-2.139 8.761-3.595 0.41-1.957 9.944-48.174 36.136-61.85 17.636-9.216 38.73-11.15 53.316-11.15 18.705 0 37.501 3.277 46.74 8.146 19.979 10.513 21.754 18.136 29.013 62.191 0.273 1.661 0.751 3.049 1.411 4.164 0.205 0.341 0.546 0.751 1.047 1.274 1.911 2.071 4.801 5.166 4.619 12.402-0.023 0.91 0.023 2.48 0.046 4.21v0.41c0.068 3.072 0.137 6.508 0.023 8.488-0.637 10.809-10.012 15.178-14.768 15.952-17.909 3.686-38.161 5.552-60.12 5.552-9.466 0-19.251-0.341-29.082-1.047l-1.729-0.114c-20.025-1.411-31.061-2.207-44.464-8.215-2.708-1.206-5.734-2.685-8.966-4.346-4.597-2.367-11.446-5.029-14.95-5.78-5.916-1.297-9.421-1.297-15.314 0-3.482 0.774-10.331 3.413-14.95 5.78-3.254 1.684-6.258 3.14-8.966 4.346-13.403 6.007-24.462 6.781-44.51 8.215l-1.684 0.114c-9.808 0.705-19.593 1.047-29.082 1.047-22.005 0-42.189-1.866-59.915-5.507-4.915-0.796-14.382-5.166-14.996-15.997-0.137-1.98-0.046-5.575 0.023-8.465l0.023-1.252c0.023-1.411 0.068-2.64 0.046-3.413-0.182-7.214 2.708-10.331 4.688-12.493 0.432-0.478 0.796-0.865 0.978-1.206 0.637-1.070 1.115-2.48 1.411-4.164 7.259-44.055 9.034-51.678 28.991-62.191 9.262-4.87 28.035-8.146 46.763-8.146 14.564 0.023 35.635 1.957 53.294 11.173v0zM539.034 668.297c0.478 1.183 6.076 11.583 55.342 14.45 8.511 0.501 15.724 0.751 22.005 0.751 27.42 0 35.999-4.665 40.892-12.174 2.935-4.483 5.006-14.382 5.029-20.457 0.068-13.744-2.617-38.161-21.231-47.172-8.784-4.255-22.073-6.804-35.521-6.804-25.577 0-45.921 8.511-54.386 22.756-18.295 30.697-12.174 48.515-12.129 48.651v0zM353.712 650.843c0.023 6.076 2.094 15.974 5.029 20.457 4.915 7.532 13.471 12.174 40.914 12.174 6.303 0 13.494-0.25 22.005-0.751 48.242-2.799 54.682-12.811 55.433-14.677 0.068-0.159 5.803-18.159-12.22-48.424-8.488-14.268-28.809-22.778-54.386-22.778-13.449 0-26.738 2.549-35.544 6.804-18.591 9.034-21.276 33.451-21.231 47.195v0z" />
<glyph unicode="&#xe916;" glyph-name="community" d="M161.815 746.667c11.332-8.624 27.511-6.463 36.159 4.87 76.095 99.692 191.488 156.877 316.644 156.877s240.549-57.185 316.644-156.877c5.074-6.645 12.766-10.149 20.526-10.149 5.461 0 10.968 1.729 15.633 5.279 11.332 8.647 13.494 24.849 4.87 36.159-85.925 112.594-216.314 177.175-357.672 177.175s-271.724-64.58-357.672-177.175c-8.624-11.31-6.463-27.511 4.87-36.159v0zM788.844 609.064c0-44.419 36.136-80.577 80.577-80.577 44.419 0 80.577 36.136 80.577 80.577 0 44.419-36.136 80.577-80.577 80.577s-80.577-36.159-80.577-80.577v0zM951.865 501.749c-0.182 0.068-20.48 6.303-20.48 6.303-7.35 2.23-15.337 0.865-21.481-3.755l-40.482-30.31-40.482 30.31c-6.167 4.619-14.154 5.985-21.504 3.755 0 0-20.298-6.235-20.48-6.303-32.654-10.9-54.613-41.347-54.613-75.776v-121.81c0-4.688 1.388-9.284 3.959-13.221l40.869-62.168v-163.271c0-13.289 10.763-24.075 24.075-24.075h136.351c13.289 0 24.098 10.763 24.098 24.075v163.271l40.846 62.168c2.571 3.914 3.959 8.511 3.959 13.221v121.81c-0.023 34.429-21.959 64.899-54.636 75.776v0zM159.835 528.486c44.419 0 80.577 36.136 80.577 80.577 0 44.419-36.136 80.577-80.577 80.577-44.419 0-80.577-36.136-80.577-80.577 0-44.419 36.136-80.577 80.577-80.577v0zM242.278 501.749c-0.182 0.068-20.48 6.303-20.48 6.303-7.35 2.23-15.337 0.865-21.504-3.755l-40.459-30.31-40.482 30.31c-6.144 4.619-14.131 5.985-21.481 3.755 0 0-20.298-6.235-20.48-6.303-32.677-10.877-54.636-41.347-54.636-75.776v-121.81c0-4.688 1.388-9.284 3.959-13.221l40.846-62.168v-163.271c0-13.289 10.763-24.075 24.075-24.075h136.374c13.289 0 24.075 10.763 24.075 24.075v163.271l40.846 62.168c2.571 3.914 3.959 8.511 3.959 13.221v121.81c0 34.429-21.959 64.899-54.613 75.776v0zM618.542 722.614c0 57.298-46.603 103.925-103.925 103.925-57.298 0-103.925-46.603-103.925-103.925 0-57.298 46.603-103.925 103.925-103.925s103.925 46.626 103.925 103.925v0zM628.759 568.331l-0.159 0.046-29.673 9.102c-4.688 1.456-9.671-1.024-11.355-5.643l-62.35-171.145c-3.595-9.876-17.567-9.876-21.163 0l-62.373 171.145c-1.365 3.709-4.892 6.053-8.647 6.053-0.887 0-32.336-9.489-32.336-9.489-37.888-12.629-63.192-47.764-63.192-87.472v-181.020c0-1.798 0.523-3.573 1.525-5.074l65.058-99.032v-250.561c0-5.097 4.119-9.216 9.216-9.216h202.661c5.097 0 9.216 4.119 9.216 9.216v250.561l65.058 99.032c1.001 1.502 1.502 3.277 1.502 5.074v181.498c0 39.549-25.395 74.615-62.987 86.926v0zM538.988 571.95c-2.549 2.799-6.326 4.21-10.149 4.21h-28.422c-3.823 0-7.6-1.411-10.172-4.21-3.982-4.369-4.574-10.65-1.729-15.542l15.201-22.915-7.122-60.006 14.017-37.274c1.365-3.732 6.667-3.732 8.033 0l14.017 37.274-7.1 60.006 15.201 22.915c2.799 4.892 2.207 11.173-1.775 15.542v0z" />
<glyph unicode="&#xe917;" glyph-name="contract" d="M169.776 650.901h416.367c16.484 0 29.847 13.363 29.847 29.847s-13.363 29.847-29.847 29.847h-416.367c-16.484 0-29.847-13.363-29.847-29.847s13.363-29.847 29.847-29.847zM169.776 548.361h416.367c16.484 0 29.847 13.363 29.847 29.847s-13.363 29.847-29.847 29.847h-416.367c-16.484 0-29.847-13.363-29.847-29.847s13.363-29.847 29.847-29.847zM390.039 197.899h-220.263c-16.484 0-29.847-13.363-29.847-29.847s13.363-29.847 29.847-29.847h220.259c16.484 0 29.847 13.363 29.847 29.847s-13.358 29.847-29.842 29.847zM1009.507 870.84l-87.749 52.649c-6.788 4.072-14.915 5.287-22.594 3.364-7.679-1.919-14.284-6.814-18.356-13.597l-152.767-254.608v180.444c0 16.484-13.363 29.847-29.847 29.847h-668.349c-16.484 0-29.847-13.363-29.847-29.847v-840.99c0-16.484 13.363-29.847 29.847-29.847h668.349c16.484 0 29.847 13.363 29.847 29.847v345.631l291.703 486.157c8.481 14.134 3.897 32.464-10.237 40.949zM624.052 286.441l-49.532-41.116 12.97 63.053 286.322 477.19 36.562-21.937-286.322-477.19zM941.086 814.818l-36.562 21.937 12.118 20.193 36.562-21.937-12.118-20.193zM59.693 27.949v781.297h608.656v-250.084l-52.713-87.851c0.209 1.428 0.354 2.874 0.354 4.358 0 16.484-13.363 29.847-29.847 29.847h-416.367c-16.484 0-29.847-13.363-29.847-29.847s13.363-29.847 29.847-29.847h416.367c6.647 0 12.762 2.2 17.72 5.871l-29.233-48.718h-404.855c-16.484 0-29.847-13.363-29.847-29.847s13.363-29.847 29.847-29.847h369.039l-5.134-8.553c-1.731-2.887-2.963-6.046-3.641-9.342l-5.129-24.947h-355.135c-16.484 0-29.847-13.363-29.847-29.847s13.363-29.847 29.847-29.847h342.856l-13.717-66.681c-2.554-12.412 3.010-25.084 13.879-31.607 4.75-2.848 10.063-4.255 15.354-4.255 6.809 0 13.58 2.324 19.068 6.882l118.874 98.673c0.814 0.678 1.522 1.467 2.26 2.221v-218.029h-608.656z" />
<glyph unicode="&#xe918;" glyph-name="copy" d="M108.606 122.182h139.636v-139.636c0-25.706 20.84-46.545 46.545-46.545h620.606c25.706 0 46.545 20.84 46.545 46.545v744.727c0 25.706-20.84 46.545-46.545 46.545h-139.636v139.636c0 25.706-20.84 46.545-46.545 46.545h-620.606c-25.706 0-46.545-20.84-46.545-46.545v-744.727c0-25.706 20.84-46.545 46.545-46.545zM868.848 29.091h-527.515v651.636h527.515v-651.636zM155.152 866.909h527.515v-93.091h-387.879c-25.706 0-46.545-20.84-46.545-46.545v-512h-93.091v651.636zM480.97 587.636c-25.706 0-46.545-20.84-46.545-46.545s20.84-46.545 46.545-46.545h248.242c25.706 0 46.545 20.84 46.545 46.545s-20.84 46.545-46.545 46.545h-248.242zM729.212 401.455h-248.242c-25.706 0-46.545-20.84-46.545-46.545s20.84-46.545 46.545-46.545h248.242c25.706 0 46.545 20.84 46.545 46.545s-20.84 46.545-46.545 46.545zM729.212 215.273h-248.242c-25.706 0-46.545-20.84-46.545-46.545s20.84-46.545 46.545-46.545h248.242c25.706 0 46.545 20.84 46.545 46.545s-20.84 46.545-46.545 46.545z" />
<glyph unicode="&#xe919;" glyph-name="csharp" d="M439.865 408.974c-1.82-4.847-4.324-9.011-7.441-12.311-3.163-3.368-6.781-6.144-10.718-8.283-3.982-2.162-8.192-3.709-12.493-4.619-12.561-2.685-24.394-1.479-33.906 3.345-6.258 3.186-11.605 7.487-15.906 12.811-4.346 5.37-7.691 11.651-9.967 18.682-2.298 7.054-3.459 14.564-3.459 22.278 0 6.872 1.001 13.926 2.981 20.912 1.957 6.918 5.006 13.198 9.034 18.682 3.982 5.416 9.17 9.876 15.406 13.244 9.17 4.961 21.458 6.372 35.362 3.8 4.392-0.819 8.693-2.276 12.811-4.324 4.050-2.025 7.828-4.824 11.173-8.283 3.322-3.413 6.030-7.828 8.055-13.13l1.161-3.004 52.793 37.547-1.024 1.934c-8.192 15.497-20.821 28.149-37.501 37.547-16.657 9.375-36.568 14.108-59.187 14.108-18.887 0-35.954-3.459-50.722-10.286-14.723-6.827-27.443-15.861-37.774-26.852-10.354-11.014-18.341-23.62-23.734-37.501-5.393-13.858-8.124-28.149-8.124-42.462 0-14.973 2.89-29.924 8.624-44.419 5.712-14.518 13.904-27.648 24.348-39.071 10.445-11.446 23.051-20.753 37.456-27.671 14.45-6.94 30.606-10.468 47.991-10.468 9.876 0 20.161 1.229 30.606 3.641 10.422 2.412 20.343 5.985 29.468 10.604 9.17 4.642 17.454 10.468 24.622 17.294 7.259 6.918 12.743 14.859 16.338 23.598l0.819 1.98-56.047 33.473-1.047-2.799zM717.164 558.638h-54.181l-14.609-59.415h-14.313l14.928 59.415h-54.181l-14.609-59.415h-48.265v-47.195h36.705l-5.348-23.256h-47.923v-50.449h35.681l-13.631-55.205h54.181l13.312 55.205h14.313l-13.631-55.205h54.181l13.312 55.205h53.134v50.449h-40.914l5.348 23.256h52.133v47.195h-40.528l14.905 59.415zM636.791 452.028l-5.348-23.256h-14.359l5.348 23.256h14.359zM512 960c-282.328 0-512-229.672-512-512s229.672-512 512-512 512 229.672 512 512-229.672 512-512 512zM512 10.934c-241.004 0-437.066 196.062-437.066 437.066s196.062 437.066 437.066 437.066 437.066-196.062 437.066-437.066-196.062-437.066-437.066-437.066z" />
<glyph unicode="&#xe91a;" glyph-name="dedent" d="M405.334 874.666h-42.666c-11.792 0-21.334-9.542-21.334-21.334v-810.666c0-11.792 9.542-21.334 21.334-21.334h42.666c11.792 0 21.334 9.542 21.334 21.334v810.668c-0.002 11.79-9.542 21.332-21.334 21.332zM289.312 645.312c-14.688 18.416-41.584 21.376-59.958 6.666l-213.334-170.666c-10.124-8.082-16.020-20.354-16.020-33.312s5.896-25.23 16.020-33.312l213.334-170.668c7.854-6.292 17.27-9.354 26.626-9.354 12.5 0 24.916 5.48 33.334 16.020 14.73 18.396 11.75 45.25-6.666 59.958l-171.69 137.356 171.688 137.354c18.416 14.708 21.396 41.562 6.666 59.958zM1002.666 362.666h-469.332c-11.792 0-21.334-9.542-21.334-21.334v-42.666c0-11.792 9.542-21.334 21.334-21.334h469.334c11.792 0 21.334 9.542 21.334 21.334v42.666c-0.002 11.792-9.544 21.334-21.336 21.334zM1002.666 618.666h-469.332c-11.792 0-21.334-9.542-21.334-21.334v-42.666c0-11.792 9.542-21.334 21.334-21.334h469.334c11.792 0 21.334 9.542 21.334 21.334v42.666c-0.002 11.792-9.544 21.334-21.336 21.334zM1002.666 874.666h-469.332c-11.792 0-21.334-9.542-21.334-21.334v-42.666c0-11.792 9.542-21.334 21.334-21.334h469.334c11.792 0 21.334 9.542 21.334 21.334v42.666c-0.002 11.792-9.544 21.334-21.336 21.334zM1002.666 106.666h-469.332c-11.792 0-21.334-9.542-21.334-21.334v-42.666c0-11.792 9.542-21.334 21.334-21.334h469.334c11.792 0 21.334 9.542 21.334 21.334v42.666c-0.002 11.792-9.544 21.334-21.336 21.334z" />
<glyph unicode="&#xe91b;" glyph-name="desktop-monitor" d="M1000.063 865.276c-16.736 16.703-36.831 25.092-60.318 25.092h-854.303c-23.495 0-43.622-8.389-60.359-25.092-16.728-16.736-25.084-36.864-25.084-60.35v-580.927c0-23.486 8.356-43.614 25.084-60.318 16.736-16.736 36.864-25.125 60.359-25.125h290.464c0-13.5-2.851-27.394-8.544-41.632-5.702-14.238-11.395-26.69-17.089-37.372-5.702-10.691-8.544-18.498-8.544-23.495 0-9.241 3.391-17.277 10.142-24.027s14.787-10.142 24.035-10.142h273.375c9.249 0 17.277 3.391 24.027 10.142 6.758 6.75 10.15 14.787 10.15 24.027 0 4.612-2.851 12.386-8.544 23.233-5.702 10.854-11.395 23.495-17.089 37.888-5.702 14.434-8.544 28.23-8.544 41.378h290.464c23.486 0 43.581 8.389 60.318 25.125 16.736 16.703 25.125 36.831 25.125 60.318v580.927c0 23.486-8.389 43.614-25.125 60.35v0zM956.834 360.698c0-4.637-1.696-8.634-5.087-12.026-3.359-3.367-7.397-5.063-12.001-5.063h-854.303c-4.645 0-8.643 1.696-12.034 5.063-3.359 3.391-5.054 7.389-5.054 12.026v444.228c0 4.637 1.663 8.643 5.054 12.034 3.391 3.359 7.389 5.054 12.034 5.054h854.303c4.637 0 8.643-1.696 12.001-5.054 3.391-3.391 5.087-7.397 5.087-12.034v-444.228zM527.417 646.926l135.168-135.168c8.593-8.618 8.593-22.561 0-31.154-8.593-8.577-22.536-8.577-31.13 0l-119.603 119.603-119.587-119.579c-8.593-8.593-22.536-8.593-31.13 0-8.618 8.593-8.618 22.536 0 31.13l135.168 135.168c4.293 4.301 9.912 6.439 15.54 6.439 5.636 0 11.297-2.138 15.573-6.439v0z" />
<glyph unicode="&#xe91c;" glyph-name="diagram" d="M536.337 904.021v31.445c0 13.594-11.006 24.534-24.305 24.534-13.561 0-24.436-10.94-24.436-24.534v-31.445h-426.967v-126.141h902.772v126.141h-427.065zM133.642 236.99h332.271v-156.604h-120.049v22.405h-44.711v-166.791h44.678v83.363h336.693v-83.363h44.744v166.791h-44.744v-22.437h-124.536v156.604h332.14v504.335h-756.486v-504.302zM619.045 589.11h219.232v-50.083h-219.232v50.083zM619.045 496.576h219.232v-50.149h-219.232v50.149zM617.931 399.129h219.199v-50.083h-219.199v50.083zM398.797 668.608c87.26 0 158.012-70.621 158.012-157.881h-158.012c0.033 0 0.033 157.881 0 157.881zM354.381 625.665v-158.012h158.012c0-87.359-70.719-158.012-158.012-158.012s-157.947 70.653-157.947 158.012c0 87.293 70.686 158.012 157.947 158.012z" />
<glyph unicode="&#xe91d;" glyph-name="document" d="M64 64v768c0 35.312 28.752 64 64 64h640c35.312 0 64-28.688 64-64v-376.248l64 64v312.248c0 70.688-57.312 128-128 128h-640c-70.688 0-128-57.312-128-128v-768c0-70.688 57.312-128 128-128h352v64h-352c-35.248 0-64 28.688-64 64zM704 768h-512v-64h512v64zM704 640h-512v-64h512v64zM704 512h-512v-64h512v64zM192 320h256v64h-256v-64zM1005.248 384l-45.248 45.248c-12.504 12.504-28.872 18.752-45.248 18.752s-32.752-6.248-45.248-18.752l-274.752-274.752c-12.504-12.496-50.752-60.84-50.752-77.216l-32-141.28 141.248 32c0 0 64.752 38.248 77.248 50.752l274.752 274.752c25 24.992 25 65.528 0 90.496zM707.936 41.44c-3.624-3.44-16.16-11.904-31.472-21.656l-82.904 82.904c8.504 11.656 17.968 23.376 23.816 29.184l206.872 206.872 90.504-90.504-206.816-206.8z" />
<glyph unicode="&#xe91e;" glyph-name="envelope" d="M898.993 837.641h-773.774c-69.072 0-125.219-56.147-125.219-125.219v-528.844c0-69.072 56.147-125.219 125.219-125.219h773.562c69.072 0 125.219 56.147 125.219 125.219v528.632c0.212 69.072-55.935 125.431-125.007 125.431zM967.005 183.578c0-37.502-30.51-68.012-68.012-68.012h-773.774c-37.502 0-68.012 30.51-68.012 68.012v528.632c0 37.502 30.51 68.012 68.012 68.012h773.562c37.502 0 68.012-30.51 68.012-68.012v-528.632h0.212zM645.8 454.568l250.438 224.589c11.653 10.594 12.713 28.603 2.119 40.468-10.594 11.653-28.603 12.713-40.468 2.119l-345.359-309.976-67.377 60.173c-0.212 0.212-0.424 0.424-0.424 0.636-1.483 1.483-2.966 2.754-4.661 4.026l-274.168 245.353c-11.865 10.594-29.875 9.534-40.468-2.331s-9.534-29.875 2.331-40.468l253.405-226.496-252.345-236.242c-11.441-10.806-12.077-28.815-1.271-40.468 5.721-5.933 13.348-9.111 20.976-9.111 6.992 0 13.984 2.543 19.493 7.628l256.159 239.633 69.496-62.080c5.509-4.873 12.289-7.204 19.069-7.204s13.772 2.543 19.069 7.416l71.402 63.987 254.676-241.963c5.509-5.297 12.713-7.839 19.705-7.839 7.628 0 15.043 2.966 20.764 8.899 10.806 11.441 10.382 29.663-1.059 40.468l-251.498 238.785z" />
<glyph unicode="&#xe91f;" glyph-name="facebook" d="M1024 789.322c0 89.68-80.964 170.678-170.667 170.678h-682.667c-89.702 0-170.667-80.998-170.667-170.678v-682.644c0-89.68 80.964-170.678 170.678-170.678h341.322v386.844h-125.156v170.667h125.156v66.492c0 114.677 86.107 217.953 192 217.953h137.956v-170.667h-137.956c-15.098 0-32.711-18.33-32.711-45.784v-67.994h170.667v-170.667h-170.667v-386.844h182.044c89.702 0 170.667 80.998 170.667 170.678v682.644z" />
<glyph unicode="&#xe920;" glyph-name="farbs" d="M644.346-5.814c-17.749 13.062-19.638 32.654-19.638 32.654l-6.645 42.553h-212.105l-6.713-42.485c0 0-1.843-19.638-19.593-32.7-17.749-13.039-31.744-24.235-17.749-26.146 13.494-1.798 140.72-0.137 150.096 0 9.398-0.137 136.602-1.798 150.050 0 13.995 1.866 0 13.084-17.704 26.123v0zM273.044 334.086c56.707 0.455 63.738 14.108 82.193 70.952 34.042 89.793 187.506-23.506 92.41-62.805-95.050-39.344-231.242-8.602-174.603-8.146v0zM854.107 925.798c-27.511 22.141-73.045 11.196-101.763-24.417l-290.702-413.036c-28.695-35.59-28.535-28.809-1.092-50.95 27.511-22.141 20.912-23.734 49.607 11.901l341.788 371.849c28.649 35.635 29.65 82.489 2.162 104.653v0zM779.355 876.328c0 0-4.255 4.961-18.409 16.247 21.254 34.702 62.942 28.353 62.942 28.353-39.549-23.393-44.533-44.601-44.533-44.601v0zM983.063 786.193h-127.863l-56.457-61.44h163.794v-491.497h-901.074v491.497h524.197l43.258 61.44h-587.981c-22.574 0-40.937-18.364-40.937-40.96v-593.897c0-22.665 18.364-41.006 40.937-41.006h942.103c22.596 0 40.937 18.341 40.937 41.006v593.897c0.023 22.596-18.341 40.96-40.914 40.96v0z" />
<glyph unicode="&#xe921;" glyph-name="folder" d="M68.267 255.989c0-35.339 28.649-63.989 64.011-63.989h319.989v-64.011h-64.011c-17.681 0-31.994-14.336-31.994-31.994h-128c-35.339 0-64.011-28.649-64.011-63.989s28.672-64.011 64.011-64.011h128c0-17.658 14.336-31.994 31.994-31.994h256c17.681 0 31.994 14.336 31.994 31.994h128c35.362 0 64.011 28.672 64.011 64.011s-28.649 63.989-64.011 63.989h-128c0 17.681-14.336 31.994-31.994 31.994h-63.989v64.011h319.989c35.339 0 63.989 28.649 63.989 63.989v384.023h-895.977v-384.023zM900.255 832h-351.983c-33.951 0-66.514 13.494-90.522 37.501l-53.020 53.020c-23.984 23.984-56.57 37.478-90.499 37.478h-181.953c-35.362 0-64.011-28.649-64.011-64.011v-191.989h896v63.989c0 35.362-28.649 64.011-64.011 64.011v0z" />
<glyph unicode="&#xe922;" glyph-name="go-to-work" d="M659.729 628.52c49.22 0 89.27 40.050 89.27 89.27s-40.050 89.293-89.27 89.293c-49.22 0-89.247-40.050-89.247-89.293 0-49.198 40.050-89.27 89.247-89.27v0zM1018.311 405.788l-64.375 64.375c-3.664 3.664-8.579 5.689-13.79 5.689-5.234 0-10.126-2.025-13.79-5.689l-18.842-18.842c-0.774 0.91-1.57 1.798-2.412 2.64-8.624 8.647-20.275 13.403-32.791 13.403l-30.515 41.597c-8.124 11.082-21.845 26.51-31.903 35.863l-62.874 58.55c-4.506 4.21-13.494 10.126-23.893 10.126h-110.182c-14.427 0-27.375-8.010-33.815-20.89l-45.921-91.887c-3.391-6.758-11.787-18.819-16.976-24.326l-32.495-34.52c-6.918-7.35-10.559-16.953-10.24-27.034 0.296-10.081 4.506-19.456 11.856-26.351 7.031-6.622 16.225-10.263 25.896-10.263 10.377 0 20.412 4.324 27.511 11.878l32.495 34.52c10.194 10.832 22.892 29.036 29.559 42.348l6.827 13.676c0 0 9.557-54.113 12.265-72.158 0.137-0.887 0.182-1.98 0.159-2.23l-10.604-118.966c-1.138-12.857-1.684-33.018-1.252-45.898l4.233-121.264c0.751-21.55 18.227-38.434 39.777-38.434 0.455 0 0.933 0 1.411 0.023 21.959 0.774 39.185 19.251 38.411 41.21l-4.233 121.264c-0.341 9.626 0.114 26.465 0.978 36.068l7.1 79.758h14.996l21.868-91.386c3.209-13.358 9.739-32.882 15.223-45.443l46.080-105.654c6.349-14.518 20.685-23.916 36.523-23.916 0.364 0 0.728 0 1.092 0.023 5.12 0.137 10.103 1.252 14.814 3.322 9.762 4.255 17.271 12.060 21.163 21.959s3.686 20.73-0.569 30.492l-46.080 105.654c-3.618 8.306-8.647 23.324-10.763 32.154l-40.118 190.145c4.119-4.619 8.055-9.398 10.718-13.016l30.674-41.825c2.662-3.618 5.939-6.713 9.603-9.148 0.637-11.446 5.279-21.982 13.312-30.015 0.842-0.842 1.729-1.638 2.64-2.412l-18.819-18.819c-3.686-3.664-5.689-8.579-5.689-13.79 0-5.234 2.025-10.126 5.689-13.79l64.375-64.375c3.686-3.686 8.579-5.689 13.79-5.689s10.103 2.025 13.79 5.689l108.089 108.089c3.664 3.686 5.689 8.579 5.689 13.79 0.023 5.143-2.002 10.058-5.666 13.722v0zM850.853 399.713c-2.162 2.162-3.823 4.733-4.938 7.532 6.645 0.683 12.971 3.095 18.432 7.1 8.146 5.962 13.471 14.746 14.996 24.713 0.205 1.32 0.319 2.64 0.387 3.937 3.391-1.092 6.463-2.913 8.988-5.439 0.865-0.865 1.616-1.798 2.298-2.753l-37.41-37.41c-0.978 0.705-1.911 1.456-2.753 2.321v0zM456.454 316.564h-20.048v422.889c0 10.65-8.67 19.342-19.342 19.342h-52.52v33.951c0 10.65-8.67 19.342-19.319 19.342h-215.518c-10.672 0-19.342-8.67-19.342-19.342v-33.974h-52.497c-10.65 0-19.342-8.67-19.342-19.342v-422.889h-20.025c-10.194 0.023-18.5-8.26-18.5-18.455v-63.42c0-10.194 8.306-18.5 18.5-18.5h437.953c10.194 0 18.5 8.283 18.5 18.5v63.42c-0.023 10.194-8.306 18.478-18.5 18.478v0zM163.772 396.208c0-2.958-2.412-5.37-5.37-5.37h-70.224c-2.935 0-5.37 2.412-5.37 5.37v70.201c0 2.958 2.412 5.37 5.37 5.37h70.224c2.958 0 5.37-2.412 5.37-5.37v-70.201zM163.772 508.302c0-2.958-2.412-5.37-5.37-5.37h-70.224c-2.935 0-5.37 2.412-5.37 5.37v70.201c0 2.958 2.412 5.37 5.37 5.37h70.224c2.958 0 5.37-2.412 5.37-5.37v-70.201zM163.772 621.602c0-2.935-2.412-5.37-5.37-5.37h-70.224c-2.935 0-5.37 2.412-5.37 5.37v70.201c0 2.958 2.412 5.37 5.37 5.37h70.224c2.958 0 5.37-2.412 5.37-5.37v-70.201zM277.959 301.386c0-2.958-2.412-5.37-5.37-5.37h-70.224c-2.958 0-5.37 2.412-5.37 5.37v165.023c0 2.958 2.412 5.37 5.37 5.37h70.201c2.958 0 5.37-2.412 5.37-5.37v-165.023zM277.959 508.302c0-2.958-2.412-5.37-5.37-5.37h-70.224c-2.958 0-5.37 2.412-5.37 5.37v70.201c0 2.958 2.412 5.37 5.37 5.37h70.201c2.958 0 5.37-2.412 5.37-5.37v-70.201zM277.959 621.602c0-2.935-2.412-5.37-5.37-5.37h-70.224c-2.958 0-5.37 2.412-5.37 5.37v70.201c0 2.958 2.412 5.37 5.37 5.37h70.201c2.958 0 5.37-2.412 5.37-5.37v-70.201zM392.442 396.208c0-2.958-2.412-5.37-5.37-5.37h-70.201c-2.958 0-5.37 2.412-5.37 5.37v70.201c0 2.958 2.412 5.37 5.37 5.37h70.201c2.958 0 5.37-2.412 5.37-5.37v-70.201zM392.442 508.302c0-2.958-2.412-5.37-5.37-5.37h-70.201c-2.958 0-5.37 2.412-5.37 5.37v70.201c0 2.958 2.412 5.37 5.37 5.37h70.201c2.958 0 5.37-2.412 5.37-5.37v-70.201zM392.442 621.602c0-2.935-2.412-5.37-5.37-5.37h-70.201c-2.958 0-5.37 2.412-5.37 5.37v70.201c0 2.958 2.412 5.37 5.37 5.37h70.201c2.958 0 5.37-2.412 5.37-5.37v-70.201z" />
<glyph unicode="&#xe923;" glyph-name="grow-up" d="M69.427 195.163v-166.002c0-10.103 8.215-18.5 18.523-18.5h128.319c10.103 0 18.523 8.192 18.523 18.5v291.999l-93.207-93.184c-19.775-19.57-45.010-30.925-72.158-32.814v0zM298.735 323.277v-294.116c0-10.103 8.192-18.5 18.5-18.5h128.341c10.103 0 18.5 8.192 18.5 18.5v173.147c-29.241 0.637-56.593 12.197-77.21 32.814l-88.132 88.155zM528.043 220.604v-191.442c0-10.103 8.215-18.5 18.5-18.5h128.341c10.103 0 18.5 8.192 18.5 18.5v353.234l-147.046-147.069c-5.666-5.666-11.765-10.513-18.295-14.723v0zM910.313 599.506l-152.94-152.94v-417.382c0-10.103 8.215-18.5 18.5-18.5h128.341c10.103 0 18.5 8.192 18.5 18.5v558.74c-4.21 3.573-7.373 6.736-9.671 8.829l-2.731 2.753zM1015.285 870.457c-6.098 6.531-15.36 9.899-27.125 9.899h-3.368c-59.733-2.731-119.285-5.689-179.041-8.42-7.987-0.41-18.933-0.842-27.557-9.466-2.753-2.731-4.847-5.894-6.531-9.671-8.852-19.16 3.573-31.562 9.466-37.456l14.928-15.155c10.308-10.513 20.844-21.049 31.357-31.334l-361.017-361.222-162.202 162.202c-9.671 9.671-22.733 15.132-36.591 15.132-13.881 0-26.715-5.461-36.386-15.132l-216.064-215.859c-20.207-20.207-20.207-52.793 0-73l9.671-9.671c9.671-9.671 22.71-15.132 36.614-15.132 13.881 0 26.715 5.461 36.386 15.132l169.779 169.779 162.202-162.202c9.671-9.671 22.71-15.155 36.591-15.155s26.715 5.484 36.614 15.155l407.302 407.302 46.080-45.875c5.484-5.461 13.039-13.039 24.622-13.039 4.847 0 9.671 1.252 14.723 4.005 3.368 1.889 6.303 4.005 8.829 6.531 9.057 9.034 10.718 20.617 11.15 29.65 1.684 38.707 3.595 77.414 5.484 116.349l2.731 58.277c0.614 12.174-2.116 21.663-8.647 28.376v0z" />
<glyph unicode="&#xe924;" glyph-name="hi-from-pc" d="M404.617 186.561v-159.13c0-26.647 21.595-48.242 48.219-48.242 26.647 0 48.242 21.595 48.242 48.242v159.13h-96.461zM521.899 186.561v-159.13c0-26.647 21.595-48.242 48.219-48.242s48.219 21.595 48.219 48.242v159.13h-96.438zM288.745 652.14l-59.893-96.324c-8.784-14.131-7.964-32.199 2.071-45.466 52.156-69.018 58.732-77.756 59.961-79.258-0.023 0.023-2.23 49.243-2.139 221.047v0zM800.472 654.279l-83.831 213.333c-8.124 20.662-31.448 30.834-52.11 22.71s-30.811-31.448-22.71-52.11l36.181-92.046c-29.309 16.566-45.42 20.708-58.436 20.708h-216.178c-37.228 0-69.586-21.595-85.197-52.929 13.016 5.848 8.624 4.324 154.032 4.324h212.833c27.398 0 49.698-22.3 49.698-49.698v-57.936c4.597-3.527 13.289-11.241 28.331-11.241 8.488 0 16.998 2.685 24.144 8.055 14.427 10.854 19.843 30.015 13.244 46.831v0zM773.029 333.449v0.341h-1.729c-3.368 0.614-70.064 0.956-70.064 0.956v63.693c-5.097-1.775-10.536-2.731-16.225-2.731h-26.283c9.375-10.923 15.041-25.122 15.041-40.596 0-7.122-1.206-13.972-3.436-20.343-0.114-0.319-0.205-0.637-0.319-0.956h-39.003c5.734 5.302 9.353 12.88 9.353 21.299 0 16.043-12.993 29.036-29.036 29.036h-56.092v44.965h129.752c9.011 0 16.316 7.305 16.316 16.316v223.186c0 9.011-7.305 16.316-16.316 16.316h-346.522c-9.011 0-16.316-7.305-16.316-16.316v-223.186c0-9.011 7.305-16.316 16.316-16.316h129.752v-44.965h-56.092c-16.043 0-29.036-12.993-29.036-29.036 0-8.442 3.618-15.997 9.353-21.299h-39.003c-0.114 0.319-0.205 0.637-0.319 0.956-2.207 6.372-3.413 13.221-3.413 20.343 0 15.497 5.666 29.673 15.041 40.596h-26.283c-6.212 0-12.174 1.161-17.658 3.254v-64.216c0 0-65.24-0.341-68.608-0.956h-0.91v-0.159c-26.465-5.257-46.49-28.672-46.49-56.661v-311.933c0-16.043 12.993-29.036 29.036-29.036s29.036 12.993 29.036 29.036v255.954h497.778v-255.954c0-16.020 12.993-29.036 29.036-29.036s29.036 12.993 29.036 29.036v311.933c-0.023 27.716-19.638 50.904-45.693 56.479v0zM511.75 504.548c-26.055 0-47.195 21.14-47.195 47.195s21.14 47.195 47.195 47.195c26.055 0 47.195-21.117 47.195-47.195s-21.14-47.195-47.195-47.195v0zM594.739 876.715c0-45.989-37.274-83.285-83.285-83.285-45.989 0-83.285 37.296-83.285 83.285s37.296 83.285 83.285 83.285c46.012 0 83.285-37.296 83.285-83.285v0z" />
<glyph unicode="&#xe925;" glyph-name="html5" d="M76.478 960c-9.411 0-16.424-7.669-15.589-17.043l79.342-889.956c0.835-9.374 8.936-19.103 18.008-21.622l336.688-93.483c9.069-2.519 23.908-2.519 32.981-0.007l337.711 93.637c9.069 2.515 17.18 12.245 18.015 21.615l79.472 889.815c0.842 9.374-6.177 17.043-15.589 17.043h-871.041zM794.139 755.891c-0.749-8.361-2.047-22.875-2.882-32.248l-2.091-23.35c-0.842-9.37-2.040-22.772-2.673-29.777-0.63-7.009-1.229-12.741-1.338-12.741-0.106 0-7.895 0-17.307 0h-238.739c-9.411 0-17.19 0-17.293 0s-7.888 0-17.3 0h-125.735c-9.411 0-16.424-7.669-15.589-17.043l7.334-81.981c0.835-9.37 9.223-17.043 18.634-17.043h115.358c9.411 0 17.197 0 17.3 0s7.882 0 17.293 0h198.284c9.411 0 23.977 0 32.365 0 8.381 0 14.623-6.841 13.864-15.202-0.763-8.361-2.067-22.878-2.902-32.248l-23.583-264.296c-0.842-9.374-1.906-21.348-2.365-26.612-0.469-5.26-8.268-11.622-17.337-14.137l-198.948-55.164c-9.069-2.512-16.605-4.593-16.745-4.624s-7.673 2.005-16.745 4.521l-199.16 55.263c-9.069 2.515-17.173 12.245-18.008 21.619l-12.82 143.89c-0.835 9.374 6.184 17.043 15.595 17.043h18.176c9.411 0 24.812 0 34.223 0h27.105c9.411 0 17.792-7.669 18.634-17.043l5.027-56.327c0.835-9.374 8.949-19.048 18.039-21.502l93.158-25.157c9.083-2.454 16.55-4.463 16.591-4.463s7.505 2.012 16.591 4.466l93.326 25.219c9.083 2.454 17.204 12.132 18.046 21.502l10.12 112.853c0.842 9.374-6.17 17.043-15.582 17.043h-104.948c-9.411 0-17.19 0-17.293 0s-7.888 0-17.3 0h-218.989c-9.411 0-17.792 7.673-18.628 17.043l-24.832 278.253c-0.835 9.374-2.132 23.884-2.882 32.248-0.743 8.361 6.345 15.202 15.756 15.202h249.574c9.411 0 17.197 0 17.3 0s7.882 0 17.293 0h249.273c9.408 0 16.499-6.841 15.753-15.205z" />
<glyph unicode="&#xe926;" glyph-name="information" d="M512 960c-282.752 0-512-229.248-512-512s229.248-512 512-512 512 229.248 512 512-229.248 512-512 512zM512 0c-247 0-448 201-448 448s201 448 448 448 448-201 448-448-201-448-448-448zM512 576c-35.312 0-64-28.688-64-64v-320c0-35.312 28.688-64 64-64s64 28.688 64 64v320c0 35.312-28.688 64-64 64zM512 768c-35.312 0-64-28.688-64-64s28.688-64 64-64 64 28.688 64 64-28.688 64-64 64z" />
<glyph unicode="&#xe927;" glyph-name="instagram" d="M741.403 960h-458.823c-155.814 0-282.579-126.771-282.579-282.585v-458.823c0-155.82 126.765-282.585 282.579-282.585h458.823c155.826 0 282.591 126.771 282.591 282.585v458.823c0.006 155.814-126.765 282.585-282.591 282.585zM933.146 218.591c0-105.723-86.014-191.732-191.738-191.732h-458.829c-105.717-0.006-191.726 86.008-191.726 191.732v458.823c0 105.717 86.008 191.732 191.726 191.732h458.823c105.723 0 191.738-86.014 191.738-191.732v-458.823zM511.997 711.848c-145.493 0-263.857-118.364-263.857-263.857 0-145.487 118.364-263.845 263.857-263.845s263.857 118.358 263.857 263.845c0 145.493-118.364 263.857-263.857 263.857zM511.997 275.005c-95.39 0-173.004 77.601-173.004 172.992 0 95.396 77.607 173.004 173.004 173.004s173.004-77.607 173.004-173.004c0-95.39-77.613-172.992-173.004-172.992zM786.92 788.886c-17.504 0-34.7-7.087-47.062-19.503-12.423-12.356-19.564-29.558-19.564-47.123 0-17.511 7.147-34.706 19.564-47.123 12.356-12.356 29.558-19.503 47.062-19.503 17.565 0 34.706 7.147 47.123 19.503 12.417 12.417 19.503 29.618 19.503 47.123 0 17.565-7.087 34.767-19.503 47.123-12.356 12.417-29.558 19.503-47.123 19.503z" />
<glyph unicode="&#xe928;" glyph-name="java" d="M506.929 770.265c-47.315-33.278-100.943-70.998-129.675-133.402-49.907-108.866 102.124-227.623 108.621-232.625 1.511-1.165 3.317-1.742 5.12-1.742 1.914 0 3.831 0.655 5.389 1.957 3.018 2.525 3.874 6.812 2.061 10.304-0.551 1.061-55.121 107.060-53.093 183.107 0.718 26.483 37.784 56.528 77.025 88.339 35.941 29.135 76.679 62.158 100.516 100.788 52.328 85.032-5.832 168.644-6.426 169.476-2.31 3.243-6.574 4.422-10.22 2.82-3.643-1.605-5.661-5.546-4.828-9.438 0.118-0.551 11.428-55.843-20.043-112.807-12.97-23.538-41.457-43.579-74.446-66.778zM706.272 732.767c3.337 2.515 4.318 7.101 2.296 10.76s-6.423 5.274-10.331 3.79c-8.038-3.055-196.832-75.826-196.832-163.759 0-60.611 25.892-92.633 44.797-116.017 7.416-9.169 13.819-17.089 15.927-23.851 5.939-19.486-8.132-54.705-14.047-66.63-1.706-3.431-0.87-7.584 2.031-10.089 1.568-1.353 3.525-2.038 5.486-2.038 1.669 0 3.344 0.497 4.791 1.504 3.247 2.26 79.335 56.055 65.687 120.869-5.083 24.633-17.19 42.635-27.873 58.519-16.548 24.606-28.501 42.383-10.368 75.215 21.252 38.287 117.464 110.998 118.434 111.726zM214.838 363.534c-3.237-9.686-1.709-19.305 4.415-27.809 20.467-28.41 92.959-44.059 204.135-44.059 0.007 0 0.010 0 0.013 0 15.065 0 30.968 0.295 47.258 0.88 177.749 6.366 243.678 61.739 246.397 64.092 2.965 2.565 3.757 6.839 1.914 10.297-1.843 3.455-5.818 5.19-9.615 4.146-62.598-17.092-179.495-23.159-260.575-23.159-90.726 0-136.93 6.533-148.241 11.358 5.805 7.97 41.604 22.202 85.965 30.928 4.24 0.833 7.155 4.747 6.735 9.048s-4.032 7.581-8.353 7.581c-26.006-0.003-156.416-2.092-170.047-43.303zM809.622 420.562c-36.662 0-71.428-18.372-72.892-19.154-3.391-1.816-5.11-5.704-4.18-9.438 0.933-3.73 4.287-6.352 8.135-6.355 0.779-0.003 78.203-0.635 85.217-44.871 6.211-38.163-73.258-99.999-104.404-120.607-3.364-2.226-4.67-6.53-3.109-10.247 1.326-3.166 4.412-5.147 7.735-5.147 0.581 0 1.168 0.060 1.753 0.188 7.393 1.578 180.811 39.792 162.476 140.764-11.187 61.88-50.078 74.866-80.731 74.866zM690.694 232.492c0.604 3.237-0.742 6.527-3.435 8.414l-41.581 29.125c-2.028 1.42-4.59 1.867-6.97 1.236-0.433-0.114-43.918-11.543-107.050-18.553-25.056-2.81-53.12-4.294-81.164-4.294-63.115 0-104.384 7.416-110.394 12.855-0.796 1.528-0.544 2.223-0.403 2.609 1.091 3.038 6.943 6.648 10.717 8.074 4.166 1.541 6.413 6.067 5.117 10.317-1.293 4.25-5.674 6.755-9.998 5.714-41.712-10.065-62.108-24.143-60.624-41.836 2.636-31.368 75.299-47.47 136.729-51.73 8.833-0.604 18.388-0.913 28.39-0.913 0.007 0 0.010 0 0.017 0 102.148 0 233.099 32.049 234.408 32.375 3.196 0.789 5.634 3.371 6.241 6.607zM377.203 165.16c3.149 2.051 4.546 5.943 3.428 9.528-1.115 3.586-4.469 5.939-8.236 5.892-5.59-0.148-54.698-2.364-58.136-33.631-1.041-9.344 1.635-17.878 7.957-25.368 17.633-20.896 65.227-33.315 145.481-37.972 9.495-0.567 19.137-0.853 28.669-0.853 102.030 0 170.746 31.945 173.623 33.305 2.79 1.319 4.63 4.059 4.794 7.141 0.165 3.079-1.373 6.003-4.005 7.611l-52.549 32.080c-1.823 1.111-4.005 1.481-6.087 1.054-0.332-0.071-33.698-6.99-84.052-13.829-9.528-1.293-21.46-1.951-35.461-1.951-50.3 0-106.247 8.219-116.977 13.597-0.154 1.011 0.044 2.286 1.551 3.394zM448.816-13.697c233.706 0.198 359.141 41.759 383.304 67.913 8.555 9.256 9.478 18.016 8.749 23.737-1.796 14.081-14.618 22.699-16.075 23.636-3.508 2.256-8.215 1.665-10.952-1.491-2.73-3.159-2.793-7.769-0.054-10.922 1.474-1.897 2.327-5.070-1.984-9.384-9.659-9.021-107.090-36.407-269.311-44.633-22.222-1.158-45.529-1.742-69.273-1.746-145.246 0-251.544 19.892-265.497 31.489 5.382 7.725 42.978 20.074 82.964 27.054 4.506 0.786 7.551 5.033 6.852 9.552s-4.865 7.631-9.417 7.037c-1.128-0.151-4.952-0.386-9.387-0.655-65.976-4.029-142.218-13.010-146.197-47-1.209-10.361 1.87-19.761 9.152-27.947 17.818-20.020 69.034-46.637 307.115-46.637 0.007-0.003 0.007-0.003 0.010-0.003zM878.025 46.847c-3.304 1.528-7.205 0.755-9.673-1.904-0.346-0.369-35.481-37.112-141.127-58.687-40.446-8.105-116.366-12.214-225.652-12.214-109.49 0-213.673 4.308-214.714 4.351-4.351 0.212-8.074-2.951-8.665-7.235-0.594-4.284 2.166-8.316 6.369-9.317 1.084-0.259 110.269-25.838 259.558-25.838 71.603 0 141.278 5.818 207.096 17.294 122.722 21.514 131.313 82.366 131.619 84.945 0.426 3.606-1.514 7.077-4.811 8.605z" />
<glyph unicode="&#xe929;" glyph-name="java-phone" d="M216.178-3.994c0-33.132 26.852-60.006 60.006-60.006h462.325c33.132 0 60.006 26.852 60.006 60.006v107.156h-582.337v-107.156zM488.038 50.87h38.593c16.566 0 29.992-13.426 29.992-29.992s-13.426-29.992-29.992-29.992h-38.593c-16.566 0-29.992 13.426-29.992 29.992s13.426 29.992 29.992 29.992zM798.492 772.858h-582.337v-609.712h582.337v609.712zM660.412 229.547h-306.13c-16.566 0-29.992 13.426-29.992 29.992s13.426 29.992 29.992 29.992h306.13c16.566 0 29.992-13.426 29.992-29.992s-13.426-29.992-29.992-29.992zM660.412 344.371h-306.13c-16.566 0-29.992 13.426-29.992 29.992s13.426 29.992 29.992 29.992h306.13c16.566 0 29.992-13.426 29.992-29.992s-13.426-29.992-29.992-29.992zM650.399 459.173h-286.128c-22.050 0-40.004 17.954-40.004 40.004v167.64c0 22.050 17.954 40.004 40.004 40.004h286.128c22.050 0 40.004-17.954 40.004-40.004v-167.64c0-22.073-17.954-40.004-40.004-40.004zM798.492 899.994c0 33.132-26.852 60.006-60.006 60.006h-462.325c-33.132 0-60.006-26.852-60.006-60.006v-67.152h582.337v67.152z" />
<glyph unicode="&#xe92a;" glyph-name="js" d="M958.584 960h-893.212c-36.072 0-65.372-29.256-65.372-65.372v-893.256c0-36.028 29.3-65.372 65.372-65.372h893.212c36.072 0 65.372 29.3 65.372 65.372v893.3c-0.044 36.072-29.3 65.328-65.372 65.328zM464.952 382.849c0-28.459-2.7-52.714-8.1-72.719s-13.588-36.072-24.476-48.642c-10.932-12.393-24.609-21.555-40.896-27.264-16.332-5.798-35.32-8.631-56.963-8.631-19.032 0-36.205 3.010-51.651 8.985s-28.503 14.517-39.303 25.671c-10.844 11.198-19.165 24.697-25.007 40.542-5.887 15.889-8.808 33.638-8.808 53.068v12.747h61.344c0-57.095 21.156-85.687 63.469-85.687 10.844 0 20.448 1.239 28.946 3.851 8.454 2.656 15.624 7.48 21.51 14.694 5.887 7.17 10.313 17.084 13.367 29.92s4.603 29.566 4.603 50.235v319.469h62.053v-316.238h-0.089zM807.303 290.124c-6.329-12.924-15.358-24.21-26.91-33.859-11.64-9.649-25.848-17.129-42.534-22.617-16.642-5.355-35.408-8.055-56.077-8.055-91.618 0-139.994 36.16-144.907 108.57h60.282c0.266-40.896 28.282-61.389 83.961-61.389 12.349 0 23.414 1.328 32.929 4.116 9.516 2.7 17.483 6.462 23.768 11.242 6.373 4.78 11.154 10.49 14.473 16.996 3.231 6.462 4.957 13.499 4.957 21.201 0 8.1-1.284 14.517-3.718 19.386-2.479 4.913-7.347 9.295-14.517 13.101-7.126 3.762-17.084 7.48-29.743 11.065-12.703 3.718-29.3 8.277-49.748 13.632-19.917 4.957-37.178 9.914-51.607 14.871-14.517 4.869-26.379 10.844-35.629 17.881-9.295 7.082-16.199 15.757-20.669 26.069-4.47 10.357-6.683 23.414-6.683 39.17 0 13.853 2.921 26.733 8.808 38.595s14.252 22.13 25.228 30.849c10.888 8.719 24.122 15.491 39.613 20.448 15.624 4.957 32.885 7.391 51.873 7.391 88.609 0 133.665-31.469 135.037-94.495h-59.264c-2.124 31.469-25.848 47.27-71.214 47.27-10.091 0-19.386-1.018-28.017-3.010s-16.022-4.869-22.396-8.631-11.242-8.409-14.827-13.942c-3.497-5.533-5.267-11.95-5.267-19.209 0-6.595 0.841-11.994 2.479-16.199 1.638-4.249 5.577-8.232 11.817-11.862s15.491-7.214 27.663-10.755c12.216-3.541 28.902-7.878 50.102-13.057 20.448-4.913 38.196-10.047 53.289-15.314 15.004-5.311 27.485-11.729 37.533-19.253 10.003-7.48 17.35-16.642 22.219-27.485 4.78-10.799 7.214-24.343 7.214-40.542 0-15.181-3.231-29.256-9.516-42.18z" />
<glyph unicode="&#xe92b;" glyph-name="kh" d="M768.528 907.216l-45.394-5.278-3.167-33.781-36.948-22.169-74.953 4.223-52.784-46.449-3.167-35.893-31.67-6.334-53.839 68.619-19.002-32.726-29.559 4.223-44.338 68.619-74.953-3.167-61.229-68.619-10.557 14.779-22.169-20.058-34.837 8.445-30.614-10.557-29.559-44.338-32.726 11.612-47.505-44.338-1.056 1.056-6.334-22.169 10.557-20.058-32.726-31.67 12.668-10.557 7.39-28.503 44.338-7.39 11.612-19.002 39.060 8.445v-50.672l29.559-35.893 21.113 1.056 16.891 16.891 16.891-24.28-8.445-15.835 24.28-21.113-14.779-23.225 13.724-27.447h-48.561l12.668-22.169-10.557-35.893-34.837-34.837-45.394 9.501-9.501 10.557-11.612-15.835-7.39-33.781 15.835-25.336 51.728 1.056 84.454-76.008 57.006-1.056 46.449-23.225 43.282 33.781 36.948-21.113 6.334-49.616 45.394-16.891 4.223-40.115 42.227-31.67 5.278-39.060 17.946 2.111 36.948 62.285 27.447-29.559 22.169-1.056 5.278 21.113-2.111 80.231 31.67-12.668 22.169 21.113h35.893l17.946-14.779 10.557 22.169 60.173 61.229 7.39 39.060 34.837 46.449 33.781-42.227 20.058 19.002 16.891-15.835 1.056-25.336 38.004-9.501 10.557-20.058 38.004 7.39 34.837 24.28 1.056 32.726-1.056 44.338-28.503 35.893-34.837 47.505-19.002 55.951 23.225 42.227-10.557 40.115 16.891 33.781-14.779 47.505 13.724 40.115 2.111 28.503-57.006 62.285-34.837 4.223-57.006 63.34 4.223 51.728-41.171-1.056z" />
<glyph unicode="&#xe92c;" glyph-name="layers" d="M1004.781 680.144l-492.781 279.856-492.781-279.856 492.781-281.538zM512 350.159l-332.256 189.837-160.524-91.154 492.781-281.538 492.781 281.538-160.503 91.154zM512 118.856l-332.256 189.837-160.524-91.154 492.781-281.538 492.781 281.538-160.503 91.154z" />
<glyph unicode="&#xe92d;" glyph-name="lector" d="M699.346 822.261c0-45.17-36.614-81.761-81.761-81.761s-81.761 36.614-81.761 81.761c0 45.147 36.614 81.761 81.761 81.761s81.761-36.591 81.761-81.761v0zM850.284 593.021c-18.751 22.346-37.729 44.578-57.253 66.264-14.108 15.61-29.286 36.545-48.265 48.902-6.827 4.437-14.086 7.805-22.005 9.33-19.092 3.891-34.702 4.437-43.486 3.891-7.919-0.546-14.973-5.302-18.318-12.584l-36.659-79.258 13.995 81.761c1.092 5.962-3.573 11.492-9.648 11.492h-22.346c-6.19 0-10.741-5.643-9.535-11.605l14.086-81.647-36.432 78.279c-4.437 8.238-13.653 12.789-22.869 11.173l-142.7-24.508-57.708 81.351c-15.952 23.211-33.724 24.303-50.972 16.043l-121.651 164.181c-3.8 4.665-10.627 5.188-15.292 1.411-4.551-4.005-5.325-10.627-1.411-15.292l121.788-164.272c-6.827-9.967-8.897-23.097-1.525-37.183l92.069-126.771c4.983-6.94 13.653-10.194 22.005-8.465l109.955 22.869v-654.427c0-20.935 17.021-37.956 37.956-37.956h17.454c20.935 0 37.956 17.021 37.956 37.956v337.351h38.935v-337.351c0-20.935 17.021-37.956 37.956-37.956h17.454c20.935 0 37.956 17.021 37.956 37.956l-0.228 453.586c18.204-12.47 46.74-11.492 58.231 14.427 13.767 31.016 48.469 98.896 63.010 127.204 4.119 7.805 3.026 17.135-2.503 23.848v0zM617.586 517.564c-9.33 0-17.021 7.578-17.021 17.021s7.578 17.021 17.021 17.021c9.444 0 17.021-7.578 17.021-17.021s-7.714-17.021-17.021-17.021v0zM617.586 568.627c-9.33 0-17.021 7.578-17.021 17.021s7.578 17.021 17.021 17.021c9.444 0 17.021-7.6 17.021-17.021s-7.714-17.021-17.021-17.021v0zM732.41 503.342v110.387c11.401-12.265 21.914-25.168 31.767-38.707-10.627-23.848-21.14-47.809-31.767-71.68v0z" />
<glyph unicode="&#xe92e;" glyph-name="left" d="M689.55 797.181c-13.95 14.438-37.168 14.438-51.606 0-13.95-13.95-13.95-37.168 0-51.086l261.674-261.674h-863.49c-20.129-0.033-36.128-16.032-36.128-36.16s15.999-36.648 36.128-36.648h863.49l-261.674-261.187c-13.95-14.438-13.95-37.689 0-51.606 14.438-14.438 37.689-14.438 51.606 0l323.622 323.622c14.438 13.95 14.438 37.168 0 51.086l-323.622 323.654z" />
<glyph unicode="&#xe92f;" glyph-name="lesson" d="M622.683 866.907c0-45.124-36.591-81.692-81.715-81.692s-81.715 36.591-81.715 81.692c0.023 45.147 36.614 81.715 81.715 81.715 45.124 0 81.715-36.568 81.715-81.715v0zM656.657 264.317v-5.234c2.685 0.046 5.325-0.068 7.942-0.341l84.014-9.262v43.782c0 5.871-3.118 11.014-7.805 13.858-6.076-24.553-28.285-42.803-54.704-42.803h-29.446zM419.203 432.435l1.183 233.518c0.023 4.21 3.436 7.578 7.623 7.578s7.6-3.413 7.6-7.6v-245.965c10.923-11.401 17.522-26.419 18.113-42.94h191.465c-0.068 8.579-0.159 14.95-0.273 26.761l-50.062 30.515c-30.879 18.819-40.664 59.119-21.845 89.998 15.223 24.986 44.487 36.136 71.452 29.537-0.023 30.72-0.046 67.538-0.046 111.957 0 4.528 3.641 8.215 8.169 8.26s8.238-3.573 8.329-8.101l0.592-118.966c2.253-1.297-7.191 4.437 79.098-48.151l-0.842 167.526c-0.25 51.177-42.098 92.82-93.298 92.82h-41.529c-5.166-13.494-42.212-113.209-47.764-127.681l11.514 54.272c0.819 3.8 0.228 7.782-1.661 11.196l-15.838 28.763 14.063 24.94c0.978 1.775 0.956 3.937-0.091 5.666-1.024 1.752-2.913 2.822-4.938 2.822h-38.593c-2.025 0-3.891-1.070-4.938-2.822-1.024-1.729-1.070-3.891-0.091-5.666l14.063-24.94-15.883-28.877c-1.843-3.368-2.435-7.236-1.684-10.991l10.081-54.386c-5.029 12.902-40.732 113.664-46.217 127.681h-42.189c-51.177 0-93.047-41.643-93.298-92.82l-1.092-229.035 43.85 2.731c12.607 0.796 24.599-2.048 34.975-7.6v0zM613.513 136.385v5.689c-8.624 19.228-5.939 13.221-12.902 28.695-10.991 24.439-5.006 52.178 12.902 70.064v23.484h-45.147v-222.936h38.32c14.928 0 28.49-5.848 38.593-15.337v45.397l-7.805 17.385c-14.518 10.809-23.962 28.080-23.962 47.559v0zM435.61 264.317h20.025v-222.936h-20.025v222.936zM688.947 376.934l-26.67 16.27 0.091-16.179c24.735 0 24.326 0.023 26.578-0.091v0zM241.937 639.169c0-43.213-35.021-78.234-78.234-78.234s-78.234 35.021-78.234 78.234c0 43.213 35.021 78.234 78.234 78.234s78.234-35.021 78.234-78.234v0zM935.936 633.298c0-41.779-33.86-75.662-75.662-75.662s-75.662 33.883-75.662 75.662c0 41.779 33.86 75.662 75.662 75.662 41.802-0.023 75.662-33.883 75.662-75.662v0zM999.105 479.698c-13.744 0-24.895-11.15-24.895-24.895v-247.899h-40.732l17.317 263.122c1.775 26.897-18.591 50.13-45.466 51.905l-86.881 5.757c-23.734 1.57-44.624-14.108-50.426-36.295l70.815 12.766-96.188-44.919-96.711 58.937c-15.428 9.398-35.567 4.528-44.988-10.923-9.421-15.428-4.528-35.567 10.923-44.988l111.684-68.062c5.211-3.186 11.127-4.779 17.044-4.779 4.71 0 9.444 1.024 13.858 3.072l112.094 52.361c-106.428-88.838-100.648-84.855-108.385-88.292l-7.122-107.338 81.397-8.966-165.456-12.652c-12.766-0.956-24.257-8.101-30.788-19.115-6.531-10.991-7.305-24.485-2.048-36.181l91.614-203.799c8.897-19.82 32.176-28.604 51.951-19.729 19.797 8.897 28.626 32.154 19.729 51.951l-68.676 152.781c61.804 4.733 7.919 3.618 245.464 3.618v-48.242h-161.314v46.148l-45.147-12.129c25.19-56.070 32.222-71.68 45.147-100.443v16.634h161.314v-74.115c0-13.744 11.15-24.895 24.895-24.895s24.895 11.15 24.895 24.895v469.811c-0.023 13.744-11.173 24.895-24.917 24.895v0zM606.686 7.543h-72.135v290.588h151.575c12.447 0 22.551 10.081 22.551 22.551 0 12.447-10.103 22.551-22.551 22.551h-288.905c14.518 4.073 24.735 17.863 23.757 33.519-1.115 18.045-16.657 31.79-34.725 30.629l-113.027-7.054-64.148 84.605 51.246-40.050-2.867 43.236c-1.775 26.897-25.054 47.263-51.928 45.488l-86.858-5.757c-26.897-1.775-47.263-25.031-45.488-51.928l15.11-227.647c-1.411-16.247 7.418-32.791 24.895-39.982h-63.42v247.876c0 13.744-11.15 24.895-24.895 24.895-13.722 0-24.872-11.127-24.872-24.895v-471.563c0-13.744 11.15-24.895 24.895-24.895s24.895 11.15 24.895 24.895v74.502h98.736l45.17 49.766h-143.929v49.63h184.274l34.088-14.040-112.572-124.041c-14.586-16.065-13.38-40.914 2.708-55.501s40.937-13.358 55.501 2.708l150.164 165.478c8.602 9.466 12.060 22.551 9.239 35.044-2.799 12.47-11.514 22.824-23.347 27.694l-153.441 63.192 165.342-34.315c7.418-1.547 14.245-4.324 20.321-8.101l-8.761 37.274c-4.073 17.385-19.729 30.31-38.252 30.31h-63.966l-1.161 17.522c-9.011-0.569-4.779-0.296-21.709-1.343-18.887-1.183-35.726 10.058-42.576 26.647l-48.651 118.352 74.752-98.577c6.69-8.829 17.294-13.585 28.126-12.902l67.493 4.21c-5.029-4.142-8.26-10.422-8.26-17.431 0-6.007 2.367-11.469 6.19-15.497 4.119-4.324 9.899-7.054 16.338-7.054h147.888v-290.566h-58.436l-7.942 33.815-20.89 89.042c-4.119-6.667-1.092-2.753-63.829-71.908l17.226-73.455c4.938-21.026 26.078-34.224 47.218-29.264 5.712 1.343 10.786 3.868 15.132 7.259 4.119-0.933-11.719-0.569 188.735-0.569 12.447 0 22.551 10.103 22.551 22.551-0.046 12.425-10.126 22.505-22.574 22.505v0z" />
<glyph unicode="&#xe930;" glyph-name="linkedin" d="M1024 337.332v-378.579h-219.476v353.224c0 88.733-31.745 149.29-111.188 149.29-60.645 0-96.735-40.811-112.612-80.288-5.79-14.113-7.28-33.757-7.28-53.512v-368.714h-219.55c0 0 2.957 598.246 0 660.229h219.529v-93.585c-0.445-0.7-1.024-1.455-1.443-2.133h1.443v2.133c29.167 44.922 81.255 109.095 197.845 109.095 144.447 0.002 252.733-94.363 252.733-297.16zM124.235 937.245c-75.108 0-124.235-49.265-124.235-114.050 0-63.373 47.705-114.133 121.321-114.133h1.467c76.562 0 124.177 50.75 124.177 114.133-1.443 64.785-47.615 114.050-122.73 114.050zM13.039-41.247h219.467v660.229h-219.467v-660.229z" />
<glyph unicode="&#xe931;" glyph-name="location" d="M512 804.713c-123.069 0-223.198-100.124-223.198-223.194s100.128-223.194 223.198-223.194 223.198 100.124 223.198 223.194-100.128 223.194-223.198 223.194zM512 418.363c-89.967 0-163.164 73.193-163.164 163.16s73.197 163.156 163.164 163.156 163.164-73.193 163.164-163.16-73.193-163.156-163.164-163.156zM512 960c-208.693 0-378.477-169.784-378.477-378.477 0-120.356 100.937-299.669 161.103-395.839 39.586-63.272 82.126-123.489 119.779-169.555 60.438-73.938 82.070-80.125 97.599-80.125 15.761 0 36.184 6.191 96.434 80.169 37.737 46.342 80.297 106.524 119.843 169.463 60.578 96.406 162.199 276.039 162.199 395.891 0 208.689-169.784 378.473-378.481 378.473zM686.662 232.379c-77.628-126.003-148.896-211.147-175.018-232.883-26.259 21.068-96.37 104.187-175.082 232.487-90.879 148.143-143 275.547-143 349.541-0.004 175.591 142.848 318.443 318.439 318.443s318.443-142.852 318.443-318.443c0.004-73.569-52.405-200.825-143.781-349.144z" />
<glyph unicode="&#xe932;" glyph-name="magic-wand" d="M1007.092 779.854c0 11.253-3.733 20.637-11.246 28.139l-123.857 123.857c-7.504 7.508-16.884 11.262-28.147 11.262-11.27 0-20.641-3.753-28.147-11.262l-804.432-804.428c-7.517-7.513-11.262-16.901-11.262-28.16 0-11.264 3.744-20.635 11.262-28.147l123.853-123.849c7.517-7.513 16.888-11.264 28.154-11.264 11.255 0 20.637 3.733 28.147 11.264l804.439 804.435c7.504 7.515 11.237 16.888 11.237 28.154zM727.484 596.569l-66.925 66.934 183.276 183.283 66.925-66.932-183.276-183.285zM143.254 799.869l18.763 61.299 61.297 18.763-61.297 18.768-18.763 61.299-18.768-61.299-61.299-18.768 61.299-18.763zM305.881 722.293l37.538-122.609 37.538 122.609 122.604 37.538-122.604 37.533-37.538 122.609-37.538-122.609-122.604-37.533zM962.692 498.364l-18.761 61.297-18.759-61.297-61.303-18.766 61.303-18.766 18.759-61.292 18.761 61.292 61.308 18.766zM543.592 799.869l18.768 61.299 61.294 18.763-61.294 18.768-18.768 61.299-18.759-61.299-61.303-18.768 61.303-18.763z" />
<glyph unicode="&#xe933;" glyph-name="man-check" d="M300.783 736.017h-86.357c-12.834 0-19.251-9.626-19.251-19.251v-86.357c0-12.834 9.626-19.251 19.251-19.251h86.357c12.811 0 19.251 9.626 19.251 19.251v86.357c0 9.626-6.417 19.251-19.251 19.251v0zM368.026 700.791h460.8v-60.826h-460.8v60.826zM300.783 511.966h-86.357c-12.834 0-19.251-9.557-19.251-19.183v-86.426c0-12.766 9.626-19.183 19.251-19.183h86.357c12.811 0 19.251 9.626 19.251 19.183v86.426c0 9.626-6.417 19.183-19.251 19.183v0zM300.783 287.983h-86.357c-12.834 0-19.251-9.626-19.251-19.183v-86.426c0-12.766 9.626-19.183 19.251-19.183h86.357c12.811 0 19.251 9.626 19.251 19.183v86.426c0 9.557-6.417 19.183-19.251 19.183v0zM303.991 179.166c0-3.186-3.186-3.186-3.186-3.186h-86.38c-3.209 0-3.209 3.186-3.209 3.186v86.426c0 3.209 3.209 3.209 3.209 3.209h86.357c3.186 0 3.186-3.209 3.186-3.209v-86.426zM595.217 476.809h-223.983v-60.826h204.8c-3.209 9.626-3.209 38.457 19.183 60.826v0zM368.026 252.826v-60.826h223.983c0 0-19.183 28.809-22.391 60.826h-201.591zM928.017 960h-832.034c-54.409 0-95.983-41.574-95.983-95.983v-832.034c0-54.409 41.574-95.983 95.983-95.983h832.034c54.409 0 95.983 41.574 95.983 95.983v832.034c0 54.409-41.574 95.983-95.983 95.983v0zM959.966 31.983c0-19.183-6.349-31.949-35.157-31.949h-828.826c-19.183 0-31.949 12.766-31.949 31.949v832.034c0 19.183 12.766 31.949 31.949 31.949h832.034c19.183 0 31.949-12.766 31.949-31.949v-832.034zM1017.651 31.983c-6.417 12.834 0 9.626-12.811 12.834-54.409 22.391-102.4 31.949-156.831 51.2-3.186 3.209-19.251 12.766-19.251 38.366 0 9.626-3.14 16.043-15.974 16.043-3.209 0-3.209 0-3.209 9.557-3.209 25.6-3.209 38.457-3.209 41.643 0 3.14 3.209 6.349 6.417 9.557 19.183 25.6 22.391 57.617 25.6 73.614 0 0 3.209-3.209 6.349 6.417 3.186 12.766 6.417 15.974 9.626 28.809 3.186 9.557 6.417 32.017-6.44 32.017-6.349-3.209-6.349 0-6.349 9.557v70.474c-3.209 25.6-15.974 41.574-28.809 47.991-16.043 12.766-22.391 15.974-32.017 22.391-6.349 6.349-6.349 12.766 0 22.391 3.186 3.209 9.626 6.349 12.811 9.557h-3.186c-3.277 0-44.851-6.349-60.848-9.557-32.017-6.417-60.826-16.043-86.403-38.434-15.974-12.766-32.017-31.949-32.017-54.409v-70.383c0-6.417 0-9.626-6.349-6.417-15.974 3.209-6.417-25.6-6.417-28.809 3.209-12.766 6.417-19.206 9.626-32.017 3.231-9.58 6.44-6.394 6.44-6.394 3.209-19.183 12.766-54.409 25.6-73.591 3.209-3.209 3.209-6.417 3.209-9.626-3.209-12.766-3.209-28.809-3.209-41.574 0-3.209-3.209-6.417-6.417-6.417-12.743 0-12.743-9.648-12.743-15.974 0-19.183-12.834-35.226-19.251-38.434-25.6-19.206-121.583-47.991-153.6-57.617-22.391-6.349-25.6-12.766-31.949-22.391l-16.043-35.157h601.634l16.020 44.783z" />
<glyph unicode="&#xe934;" glyph-name="man-pc" d="M871.287 124.325h-536.826c-15.11 0-27.352-12.242-27.352-27.352v-16.839c0-15.11 12.242-27.352 27.352-27.352h627.28v71.521h-90.453zM428.965 706.207c0-83.627-67.789-151.393-151.393-151.393s-151.393 67.789-151.393 151.393c0 83.604 67.766 151.393 151.393 151.393 83.604 0 151.393-67.789 151.393-151.393v0zM646.963 334.882l-355.146 0.205v40.255l-0.296 33.701c0 80.486-65.263 145.749-145.749 145.749-2.731 0-5.439-0.091-8.124-0.228l-0.205 0.228c-75.913 0.023-137.444-61.508-137.444-137.398v-388.119h291.794v165.342l-3.868 0.296c-0.273 0.023-0.341 0-0.523 0-19.729 0-38.662 8.306-51.996 22.869l-118.443 129.274c-3.777 4.119-3.504 10.513 0.614 14.29s10.513 3.482 14.29-0.637l118.443-129.274c9.626-10.513 23.188-16.93 37.478-17.135 0.956-0.023 13.926-0.205 13.926-0.205h345.202c33.36 0 60.393 27.034 60.393 60.393 0.023 33.36-27.011 60.393-60.348 60.393v0zM1005.727 549.171c-14.131 4.824-29.491-2.685-34.338-16.816l-114.62-334.62h-410.146c-14.928 0-27.034-12.106-27.034-27.034s12.106-27.034 27.034-27.034h429.124c9.193 0 17.317 4.597 22.187 11.628 1.684 2.23 3.072 4.733 4.028 7.532l120.582 352.006c4.824 14.131-2.708 29.491-16.816 34.338v0z" />
<glyph unicode="&#xe935;" glyph-name="man-table" d="M376.422 545.667c-3.209-0.205-13.631-9.17-13.631-9.17 5.598-2.412 16.862 9.353 13.631 9.17zM377.833 547.487l-0.819-0.501c0.296 0.114 0.569 0.228 0.819 0.319-0.023 0.091 0 0.114 0 0.182zM763.904 948.622c57.822 0 104.721-46.876 104.721-104.721s-46.876-104.721-104.721-104.721-104.721 46.876-104.721 104.721 46.876 104.721 104.721 104.721zM135.305 499.678h28.058v13.494h-28.058c-7.646 0-13.153 1.525-15.178 4.142-1.547 2.025-0.887 4.642-0.887 4.642l0.341 81.442h-13.471v-78.575c-0.592-2.731-1.343-9.33 3.095-15.383 4.71-6.463 13.517-9.762 26.101-9.762zM1022.202 308.326l-3.8 30.879c-15.041 120.604-15.633 125.201-9.83 337.715 0.182 7.441-5.621 13.631-13.13 13.858-7.077 0.478-13.631-5.666-13.858-13.107-5.848-214.517-5.211-219.295 10.035-341.743l3.823-30.925c3.914-29.628 0.478-50.153-9.603-58.049-11.742-9.057-32.267-1.001-33.678-0.432-99.191 30.515-222.777-32.54-228.011-35.135-6.622-3.391-9.216-11.56-5.78-18.182 2.389-4.642 7.122-7.236 11.992-7.236 2.071 0 4.164 0.432 6.19 1.525 0.819 0.387 55.979 28.422 118.579 37.797v-209.988h-56.024c-11.423 0-20.662-9.239-20.662-20.639 0-11.378 9.262-20.639 20.662-20.639h159.152c11.423 0 20.662 9.262 20.662 20.639 0 11.423-9.262 20.639-20.662 20.639h-51.632v212.264c12.425-0.842 24.69-2.776 36.454-6.394 1.434-0.569 34.884-14.313 59.164 4.324 18.569 14.268 25.35 42.189 19.957 82.83zM958.1 369.539c-2.321 88.701-31.403 173.761-33.678 262.076-3.368 128.637-200.499 131.573-202.092 6.076-75.457-12.834-150.801-19.661-227.51-16.043-69.632 3.254-69.837-104.585-0.705-107.816 80.577-3.777 160.495 3.868 239.844 16.907 8.146-47.218 17.795-94.185 20.867-141.926-164.159-57.344-255.158-196.289-278.391-372.85-0.159-1.206-0.205-2.503-0.296-3.777v390.94h103.515v92.41h-371.28c0.228 1.183 0.296 2.549 0.387 4.233 0.046 1.001 0.091 2.139 0.159 3.391 0.478 7.805 1.843 10.468 9.489 11.947 1.934 0.364 4.369 0.478 6.827 0.432v-6.485h99.647c2.913-0.546 5.78-0.956 8.465-0.956 4.187 0 7.782 0.956 9.921 3.823 1.115 1.502 1.115 3.573 1.092 5.575 0 1.934-0.023 3.914 0.91 5.074 1.434 1.752 4.21 2.913 6.19 3.095-2.071-4.005-3.368-8.26-3.368-12.766h112.868c0 21.709-25.281 39.322-56.434 39.322-9.739 0-18.705-1.866-26.67-4.87 1.866-18.591-15.633-16.794-22.391-15.428-0.796-1.001-1.479-2.048-2.162-3.095-0.296 0.068-0.569 0.25-0.91 0.273-3.004 0.137-7.35-1.684-9.648-4.46-1.707-2.094-1.684-4.801-1.684-7.168 0.023-1.456 0.023-2.981-0.432-3.573-1.183-1.616-3.527-2.139-6.212-2.276v15.565h-109.204v-8.238c-2.913 0.023-5.598-0.228-7.441-0.592-9.694-1.866-11.628-6.303-12.151-14.973-0.068-1.297-0.114-2.458-0.159-3.459-0.068-1.957-0.137-3.345-0.41-4.392h-205.050v-92.41h56.343v-448.239h419.749v44.874c6.827-69.063 124.7-62.76 135.1 16.293 17.954 136.602 97.621 227.806 231.561 257.98 55.706-8.465 117.214 23.188 115.348 95.505zM152.257 799.778l16.976-241.937-44.806-3.14-16.976 241.937 44.806 3.14z" />
<glyph unicode="&#xe936;" glyph-name="man-with-computer" d="M376.424 543.328c-3.21-0.198-13.632-9.16-13.632-9.16 5.608-2.416 16.86 9.359 13.632 9.16zM377.831 545.167l-0.829-0.505c0.289 0.108 0.559 0.216 0.811 0.325 0 0.072 0.018 0.108 0.018 0.18zM763.902 946.295c57.83 0 104.714-46.884 104.714-104.714s-46.884-104.714-104.714-104.714-104.714 46.884-104.714 104.714 46.884 104.714 104.714 104.714zM135.296 497.345h28.058v13.488h-28.058c-7.646 0-13.164 1.515-15.183 4.147-1.533 2.020-0.866 4.652-0.866 4.652l0.343 81.434h-13.488v-78.567c-0.595-2.741-1.352-9.323 3.084-15.382 4.724-6.474 13.542-9.774 26.111-9.774zM1022.215 305.987l-3.805 30.871c-15.039 120.6-15.634 125.198-9.828 337.727 0.18 7.447-5.626 13.632-13.128 13.849-7.069 0.469-13.632-5.662-13.867-13.109-5.842-214.512-5.211-219.291 10.044-341.748l3.823-30.925c3.913-29.627 0.469-50.148-9.611-58.046-11.739-9.052-32.278-1.010-33.684-0.433-99.196 30.511-222.771-32.53-228-35.145-6.618-3.39-9.215-11.559-5.788-18.177 2.398-4.634 7.123-7.231 11.991-7.231 2.074 0 4.165 0.433 6.185 1.515 0.811 0.379 55.972 28.419 118.58 37.796v-209.986h-56.026c-11.414 0-20.665-9.233-20.665-20.647 0-11.378 9.251-20.647 20.665-20.647h159.153c11.414 0 20.665 9.269 20.665 20.647 0 11.414-9.269 20.647-20.665 20.647h-51.626v212.258c12.424-0.848 24.686-2.777 36.443-6.383 1.443-0.577 34.892-14.318 59.164 4.328 18.591 14.282 25.353 42.214 19.98 82.84zM958.092 367.206c-2.326 88.701-31.394 173.759-33.684 262.081-3.372 128.642-200.501 131.564-202.088 6.077-75.447-12.839-150.804-19.655-227.513-16.049-69.623 3.264-69.839-104.587-0.703-107.815 80.568-3.769 160.487 3.877 239.848 16.896 8.151-47.209 17.798-94.183 20.863-141.932-164.166-57.343-255.157-196.282-278.383-372.854-0.162-1.208-0.198-2.506-0.307-3.769v390.94h103.523v92.416h-371.285c0.216 1.172 0.307 2.543 0.379 4.238 0.036 1.010 0.090 2.128 0.162 3.39 0.469 7.808 1.839 10.477 9.485 11.955 1.929 0.361 4.364 0.469 6.816 0.433v-6.492h99.646c2.903-0.541 5.788-0.956 8.475-0.956 4.183 0 7.79 0.956 9.918 3.823 1.118 1.497 1.118 3.57 1.1 5.572 0 1.929-0.018 3.913 0.92 5.085 1.443 1.749 4.22 2.921 6.185 3.102-2.074-4.003-3.372-8.259-3.372-12.767h112.864c0 21.711-25.281 39.31-56.423 39.31-9.737 0-18.699-1.857-26.67-4.869 1.857-18.591-15.634-16.788-22.396-15.418-0.793-0.992-1.479-2.038-2.164-3.084-0.307 0.072-0.559 0.252-0.902 0.27-3.011 0.144-7.357-1.677-9.647-4.454-1.713-2.092-1.677-4.797-1.677-7.177 0.018-1.461 0.018-2.975-0.433-3.57-1.19-1.605-3.534-2.128-6.221-2.272v15.544h-109.186v-8.241c-2.903 0.018-5.608-0.234-7.447-0.595-9.683-1.857-11.631-6.311-12.154-14.967-0.072-1.298-0.108-2.452-0.162-3.462-0.072-1.966-0.144-3.336-0.415-4.382h-205.045v-92.416h56.351v-448.247h419.756v44.882c6.834-69.064 124.711-62.752 135.098 16.301 17.96 136.595 97.627 227.802 231.571 257.988 55.684-8.475 117.192 23.172 115.317 95.481zM152.265 797.457l16.968-241.939-44.81-3.138-16.968 241.921 44.81 3.156z" />
<glyph unicode="&#xe937;" glyph-name="monitor" d="M998.927 866.664c-16.709 16.709-36.789 25.073-60.264 25.073h-853.33c-23.466 0-43.549-8.363-60.27-25.073-16.711-16.715-25.063-36.796-25.063-60.264v-580.271c0-23.474 8.352-43.553 25.063-60.272 16.721-16.709 36.804-25.058 60.27-25.058h290.138c0-13.508-2.847-27.387-8.537-41.599-5.686-14.223-11.376-26.662-17.066-37.325-5.683-10.676-8.528-18.488-8.528-23.462 0-9.243 3.376-17.261 10.132-23.999 6.753-6.764 14.754-10.153 23.999-10.153h273.066c9.245 0 17.247 3.387 24 10.153 6.762 6.736 10.138 14.754 10.138 23.999 0 4.61-2.851 12.35-8.539 23.192-5.69 10.836-11.38 23.474-17.063 37.859-5.69 14.402-8.535 28.179-8.535 41.336h290.138c23.462 0 43.542 8.348 60.251 25.058 16.717 16.717 25.073 36.796 25.073 60.272v580.271c0.006 23.468-8.358 43.549-25.075 60.264zM955.733 362.665c0-4.623-1.687-8.617-5.064-12-3.381-3.37-7.382-5.057-12.006-5.057h-853.33c-4.62 0-8.621 1.687-11.998 5.057-3.376 3.394-5.066 7.377-5.066 12v443.735c0 4.623 1.685 8.621 5.066 11.998 3.379 3.372 7.381 5.066 11.998 5.066h853.343c4.616 0 8.625-1.689 11.993-5.066 3.377-3.379 5.064-7.377 5.064-11.998v-443.735z" />
<glyph unicode="&#xe938;" glyph-name="multiple-users" d="M617.94 730.971c47.347-29.686 80.548-79.921 86.592-138.233 19.309-9.022 40.74-14.211 63.462-14.211 82.95 0 150.182 67.232 150.182 150.169 0 82.95-67.232 150.182-150.182 150.182-82.158-0.026-148.801-66.056-150.054-147.907zM519.553 423.477c82.95 0 150.182 67.244 150.182 150.182s-67.244 150.169-150.182 150.169c-82.937 0-150.207-67.244-150.207-150.182s67.27-150.169 150.207-150.169zM583.257 413.24h-127.435c-106.029 0-192.289-86.273-192.289-192.302v-155.843l0.396-2.441 10.735-3.361c101.186-31.616 189.094-42.159 261.45-42.159 141.326 0 223.24 40.293 228.288 42.862l10.032 5.073h1.073v155.868c0.038 106.029-86.221 192.302-192.251 192.302zM831.724 568.278h-126.451c-1.367-50.593-22.964-96.151-57.123-128.917 94.247-28.025 163.204-115.422 163.204-218.653v-48.024c124.853 4.575 196.8 39.961 201.541 42.338l10.032 5.086h1.073v155.894c0 106.017-86.26 192.276-192.276 192.276zM256.032 578.502c29.379 0 56.714 8.575 79.87 23.182 7.361 48.012 33.098 89.966 69.864 118.54 0.153 2.811 0.422 5.597 0.422 8.434 0 82.95-67.244 150.182-150.156 150.182-82.963 0-150.182-67.232-150.182-150.182 0-82.912 67.219-150.156 150.182-150.156zM390.904 439.361c-33.993 32.6-55.513 77.915-57.085 128.201-4.69 0.345-9.329 0.716-14.108 0.716h-127.422c-106.029 0-192.289-86.26-192.289-192.276v-155.868l0.396-2.402 10.735-3.386c81.174-25.341 153.619-37.021 216.544-40.702v47.066c0.026 103.231 68.957 190.602 163.229 218.653z" />
<glyph unicode="&#xe939;" glyph-name="mustache" d="M589.596 314.175l-64.262 32.131c-8.442 4.233-18.386 4.233-26.829 0l-64.262-32.131c-14.814-7.418-20.821-25.418-13.426-40.255s25.441-20.821 40.255-13.426l50.859 25.418 50.859-25.418c4.301-2.162 8.875-3.186 13.403-3.186 11.014 0 21.595 6.076 26.852 16.589 7.396 14.837 1.388 32.859-13.449 40.277zM871.879-18.967c-35.886 62.032-87.472 114.051-149.208 150.437-21.345 12.584-43.713 23.165-66.833 31.676 103.902 52.702 175.286 160.609 175.286 284.854v192.808c0 176.014-143.201 319.192-319.192 319.192s-319.192-143.201-319.192-319.192v-192.808c0-124.268 71.384-232.152 175.286-284.854-23.12-8.511-45.488-19.092-66.833-31.676-61.736-36.386-113.323-88.405-149.208-150.437-5.37-9.284-5.37-20.73-0.023-30.015s15.269-15.019 25.987-15.019h668.012c10.718 0 20.639 5.712 25.987 15.019 5.325 9.284 5.302 20.73-0.068 30.015zM254.453 418.008h514.958c-14.905-128.842-124.7-229.194-257.479-229.194-132.779-0.023-242.574 100.352-257.479 229.194zM533.14 41.199c-5.575-5.598-13.312-8.806-21.208-8.806s-15.633 3.209-21.231 8.806c-5.575 5.575-8.784 13.289-8.784 21.208 0 7.896 3.209 15.633 8.784 21.208 5.598 5.575 13.312 8.784 21.231 8.784 7.896 0 15.633-3.209 21.208-8.784s8.784-13.312 8.784-21.208c0-7.919-3.209-15.633-8.784-21.208z" />
<glyph unicode="&#xe93a;" glyph-name="pallete" d="M512 960c-284.49 0-512-227.51-512-512s227.51-512 512-512c45.579 0 85.265 39.686 85.265 85.265 0 22.756-5.552 39.686-22.756 56.957-11.105 16.93-22.482 33.86-22.482 56.616 0 45.579 39.686 85.629 85.265 85.629h102.195c159.516 0 284.49 124.951 284.49 284.49 0.023 250.288-227.487 455.043-511.977 455.043v0zM199.202 448c-45.579 0-85.265 39.686-85.265 85.265s39.686 85.265 85.265 85.265c45.511 0 85.265-39.686 85.265-85.265s-39.731-85.265-85.265-85.265v0zM369.755 675.51c-45.511 0-85.265 39.754-85.265 85.265 0 45.579 39.754 85.265 85.265 85.265 45.579 0 85.265-39.686 85.265-85.265 0-45.511-39.663-85.265-85.265-85.265v0zM654.245 675.51c-45.511 0-85.265 39.754-85.265 85.265 0 45.579 39.754 85.265 85.265 85.265 45.579 0 85.265-39.686 85.265-85.265 0-45.511-39.686-85.265-85.265-85.265v0zM825.139 448c-45.579 0-85.629 39.686-85.629 85.265s40.050 85.265 85.629 85.265c45.238 0 85.265-39.686 85.265-85.265s-40.027-85.265-85.265-85.265v0z" />
</font>
</defs>
</svg>
